<svg xmlns="http://www.w3.org/2000/svg" viewBox="0 0 691.03 691.03"><defs><style>.cls-1{fill:#fff;}</style></defs><g id="Layer_2" data-name="Layer 2"><g id="Layer_1-2" data-name="Layer 1"><path class="cls-1" d="M0,0H691V691H0ZM344.72,581.91c0,10.65-.05,20.27,0,29.89.06,9.3,3.85,13.31,12.92,13.31q148.84.06,297.68,0c8.82,0,12.85-4,12.87-12.69q.12-41.42,0-82.83c0-8.37-4.08-12.37-12.46-12.41-18.4-.1-36.81,0-55.22,0h-7.72v-8.73c0-50.28.09-100.57-.13-150.85a17.76,17.76,0,0,1,5.84-14Q627.61,315,656.16,286c13.85-14.15,16-34.44,6-50.79-9.7-15.85-28.93-23.86-46.61-17.94-8,2.67-15,8.21-22.7,12.61V224c0-26.71-.12-53.43.09-80.14A18.45,18.45,0,0,0,587,129.58Q535.9,78.77,485.11,27.66c-4.46-4.5-9.17-6.33-15.49-6.32q-163.3.21-326.61.1c-28.17,0-46.13,18.09-46.13,46.42q0,150.86,0,301.7v7.28h21.79v-8.39q0-150.18,0-300.35c0-16.48,8.39-24.87,24.84-24.87H462.84c.24,1.55.37,2,.37,2.43,0,20.21,0,40.41.07,60.61.1,26,18.57,44.58,44.48,44.7,18.63.09,37.26,0,55.89,0H571c0,32.69-.11,64.32.12,96A15.62,15.62,0,0,1,566,259.21q-80.64,80.32-160.9,161a27.56,27.56,0,0,0-6.87,12.51c-3.78,16.14-6.87,32.45-10,48.73-1.83,9.52,4.58,15.77,14.17,13.91,16.07-3.11,32.17-6.09,48.08-9.84a28.94,28.94,0,0,0,13.11-7.16c34-33.59,67.75-67.49,101.57-101.29,1.6-1.59,3.32-3.06,5.49-5.05V517.14H379.91c-38.71,0-35.2-3.63-35.19,34.86v8.59H291.2v21.32ZM21.44,506.48q0,73.42,0,146.83c0,11.52,3.35,14.93,14.72,14.93q147.15,0,294.32,0c5.72,0,10.85-.69,13.46-6.62,2.79-6.31-.62-10.59-4.81-14.78Q191,498.82,42.91,350.68c-4.16-4.16-8.37-7.73-14.73-5s-6.8,8.1-6.79,14Q21.51,433.07,21.44,506.48ZM237,285.39c0,19.08.12,38.16-.06,57.24-.06,6.43,2.54,10.49,8.4,13.08,31,13.66,61.8,27.63,92.89,41a18.75,18.75,0,0,0,13.34.07C382.4,383.49,413,369.55,443.76,356c6.4-2.82,9.07-7.07,9-14.06q-.27-56.22,0-112.45c0-7.28-2.69-11.61-9.35-14.53-30.59-13.39-61-27.26-91.67-40.41a19.53,19.53,0,0,0-13.9,0c-30.9,13.24-61.5,27.17-92.29,40.68-6.16,2.71-8.8,6.82-8.73,13.54C237.1,247.68,237,266.53,237,285.39ZM355.27,150.75V97.34H334.41v53.41ZM334.41,431.17v53.4h20.86v-53.4Zm153-205.78,45.33-21.77L523.15,184l-45.22,21.68ZM211.5,205.79l-45.32-21.67-9.4,19.69,45.34,21.65Zm-9.41,150.57-45.31,21.73,9.47,19.67L211.51,376ZM140.24,85.82h21V65h-21Zm64.17.27V65H183.54V86.09ZM226.54,86h21.07V64.9H226.54Z"/><path d="M344.72,581.91H291.2V560.59h53.52V552c0-38.49-3.52-34.85,35.19-34.86H570.66V372c-2.17,2-3.89,3.46-5.49,5.05-33.82,33.8-67.54,67.7-101.57,101.29a28.94,28.94,0,0,1-13.11,7.16c-15.91,3.75-32,6.73-48.08,9.84-9.59,1.86-16-4.39-14.17-13.91,3.13-16.28,6.22-32.59,10-48.73a27.56,27.56,0,0,1,6.87-12.51q80.22-80.75,160.9-161a15.62,15.62,0,0,0,5.13-12.27c-.23-31.64-.12-63.27-.12-96h-7.37c-18.63,0-37.26.07-55.89,0-25.91-.12-44.38-18.69-44.48-44.7-.09-20.2,0-40.4-.07-60.61,0-.44-.13-.88-.37-2.43H143.5c-16.45,0-24.84,8.39-24.84,24.87q0,150.17,0,300.35v8.39H96.87v-7.28q0-150.85,0-301.7c0-28.33,18-46.41,46.13-46.42q163.31,0,326.61-.1c6.32,0,11,1.82,15.49,6.32Q535.87,78.8,587,129.58a18.45,18.45,0,0,1,5.91,14.29c-.21,26.71-.09,53.43-.09,80.14v5.83c7.72-4.4,14.73-9.94,22.7-12.61,17.68-5.92,36.91,2.09,46.61,17.94,10,16.35,7.89,36.64-6,50.79q-28.5,29.12-57.64,57.59a17.76,17.76,0,0,0-5.84,14c.22,50.28.13,100.57.13,150.85v8.73h7.72c18.41,0,36.82-.06,55.22,0,8.38,0,12.43,4,12.46,12.41q.12,41.42,0,82.83c0,8.73-4.05,12.69-12.87,12.69q-148.85.06-297.68,0c-9.07,0-12.86-4-12.92-13.31C344.67,602.18,344.72,592.56,344.72,581.91Zm129.44-42.59H452.49V560H430.71V539.26H409.52V560h-22V539.43H366.94V602.8H646V539.35H624.86v20.57H603.07V539.29H581.88V560H560.1V539.46H538.68v20.59H516.89V539.39H495.47v20.73H474.16ZM593,265.39,427.57,430.8l25.48,25.73C508,401.59,563.51,346.08,618.62,291ZM485.08,60.28c0,16.32-.26,32.24.08,48.14.26,11.73,9.46,20.45,21.42,20.71,11,.24,22,.06,33,.07h14.48Zm151.4,214.36c7.2-6.25,12.09-13.34,9-23.48-2.52-8.15-8.3-12.78-16.55-13.74-8.92-1-15.19,3.6-19.66,9.92ZM416,454.22c-1,5.47-1.89,10.38-3,16.48l16.51-3.1Z"/><path d="M21.44,506.48q0-73.41-.05-146.82c0-5.92.47-11.36,6.79-14s10.57.88,14.73,5Q191,498.82,339.13,646.89c4.19,4.19,7.6,8.47,4.81,14.78-2.61,5.93-7.74,6.62-13.46,6.62q-147.17-.09-294.32,0c-11.37,0-14.72-3.41-14.72-14.93Q21.42,579.9,21.44,506.48ZM43.57,646H305.06L43.57,384.54Z"/><path d="M237,285.39c0-18.86.14-37.71-.08-56.56-.07-6.72,2.57-10.83,8.73-13.54,30.79-13.51,61.39-27.44,92.29-40.68a19.53,19.53,0,0,1,13.9,0c30.69,13.15,61.08,27,91.67,40.41,6.66,2.92,9.39,7.25,9.35,14.53q-.33,56.22,0,112.45c0,7-2.64,11.24-9,14.06-30.77,13.53-61.36,27.47-92.23,40.75a18.75,18.75,0,0,1-13.34-.07c-31.09-13.36-61.92-27.33-92.89-41-5.86-2.59-8.46-6.65-8.4-13.08C237.08,323.55,237,304.47,237,285.39Zm21.79-42.23c0,31.24-.08,61,.19,90.86,0,1.87,2.34,4.58,4.25,5.45,22,10,44.11,19.79,66.22,29.58a33.57,33.57,0,0,0,4.53,1.23c0-30.46.1-60.27-.21-90.08,0-2-2.69-4.81-4.8-5.78C312.06,266.63,295,259.19,278,251.66,272,249,265.86,246.29,258.75,243.16Zm97,127.68c3-1.2,5.06-1.94,7.06-2.82,20.68-9.16,41.28-18.46,62.05-27.4,4.52-1.94,6.28-4.18,6.23-9.32-.31-26.9-.14-53.81-.16-80.71,0-2.13-.2-4.26-.34-7.25-24.61,10.92-48.51,21.48-72.31,32.26-1.29.58-2.42,3.07-2.43,4.68C355.7,310.09,355.74,339.9,355.74,370.84ZM415,226.33c-23.74-10.56-45.76-20.43-67.89-30-1.68-.73-4.37-.08-6.23.73q-30.18,13.22-60.23,26.72a53.9,53.9,0,0,0-4.92,2.95c22.85,10.14,44.74,19.9,66.7,29.51a6.93,6.93,0,0,0,5,0C369.34,246.62,391.23,236.86,415,226.33Z"/><path d="M355.27,150.75H334.41V97.34h20.86Z"/><path d="M334.41,431.17h20.86v53.4H334.41Z"/><path d="M487.38,225.39l-9.45-19.67L523.15,184l9.56,19.58Z"/><path d="M211.5,205.79l-9.38,19.67-45.34-21.65,9.4-19.69Z"/><path d="M202.09,356.36,211.51,376l-45.26,21.74-9.47-19.67Z"/><path d="M140.24,85.82V65h21V85.82Z"/><path d="M204.41,86.09H183.54V65h20.87Z"/><path d="M226.54,86V64.9h21.07V86Z"/><path class="cls-1" d="M474.16,539.32v20.8h21.31V539.39h21.42v20.66h21.79V539.46H560.1V560h21.78v-20.7h21.19v20.63h21.79V539.35H646V602.8h-279V539.43H387.5V560h22V539.26h21.19V560h21.78V539.32Z"/><path class="cls-1" d="M593,265.39,618.62,291C563.51,346.08,508,401.59,453.05,456.53L427.57,430.8Z"/><path class="cls-1" d="M485.08,60.28l69,68.92H539.57c-11,0-22,.17-33-.07-12-.26-21.16-9-21.42-20.71C484.82,92.52,485.08,76.6,485.08,60.28Z"/><path class="cls-1" d="M636.48,274.64l-27.25-27.3c4.47-6.32,10.74-11,19.66-9.92,8.25,1,14,5.59,16.55,13.74C648.57,261.3,643.68,268.39,636.48,274.64Z"/><path class="cls-1" d="M416,454.22l13.5,13.38L413,470.7C414.07,464.6,415,459.69,416,454.22Z"/><path class="cls-1" d="M43.57,646V384.54L305.06,646Zm96.57-42.45c13.68,0,27.36-.07,41,0,5.42,0,9.74-1.55,12-6.8s.16-9.51-3.61-13.28q-41.66-41.61-83.25-83.26c-3.76-3.76-7.89-6-13.24-3.88-5.6,2.27-7,6.87-7,12.52.1,26.91,0,53.82,0,80.74,0,10.14,3.69,13.87,13.67,13.91C113.23,603.62,126.68,603.58,140.14,603.58Z"/><path class="cls-1" d="M258.75,243.16c7.11,3.13,13.21,5.8,19.29,8.5,17,7.53,34,15,50.89,22.76,2.11,1,4.78,3.79,4.8,5.78.31,29.81.21,59.62.21,90.08a33.57,33.57,0,0,1-4.53-1.23c-22.11-9.79-44.23-19.55-66.22-29.58-1.91-.87-4.24-3.58-4.25-5.45C258.67,304.21,258.75,274.4,258.75,243.16Z"/><path class="cls-1" d="M355.74,370.84c0-30.94,0-60.75.1-90.56,0-1.61,1.14-4.1,2.43-4.68,23.8-10.78,47.7-21.34,72.31-32.26.14,3,.34,5.12.34,7.25,0,26.9-.15,53.81.16,80.71.05,5.14-1.71,7.38-6.23,9.32-20.77,8.94-41.37,18.24-62.05,27.4C360.8,368.9,358.75,369.64,355.74,370.84Z"/><path class="cls-1" d="M415,226.33c-23.73,10.53-45.62,20.29-67.58,29.89a6.93,6.93,0,0,1-5,0c-22-9.61-43.85-19.37-66.7-29.51a53.9,53.9,0,0,1,4.92-2.95Q310.69,210.3,340.84,197c1.86-.81,4.55-1.46,6.23-.73C369.2,205.9,391.22,215.77,415,226.33Z"/><path d="M140.14,603.58c-13.46,0-26.91,0-40.37,0-10,0-13.65-3.77-13.67-13.91,0-26.92.05-53.83,0-80.74,0-5.65,1.41-10.25,7-12.52,5.35-2.17,9.48.12,13.24,3.88q41.58,41.67,83.25,83.26c3.77,3.77,5.88,8,3.61,13.28s-6.56,6.84-12,6.8C167.5,603.51,153.82,603.58,140.14,603.58Zm13-22-44.76-44.79v44.79Z"/><path class="cls-1" d="M153.14,581.56H108.38V536.77Z"/></g></g></svg>