<svg xmlns="http://www.w3.org/2000/svg" viewBox="0 0 511.9 511.9"><defs><style>.cls-1{fill:#fff;}</style></defs><g id="Layer_2" data-name="Layer 2"><g id="Layer_1-2" data-name="Layer 1"><path class="cls-1" d="M270.42,0H511.9V511.9H0V0H242.48c-1.62.32-3.22.69-4.84.94C226,2.67,214.17,3.68,202.69,6.2c-49.82,10.91-93,34.51-128.84,70.67-40.41,40.75-64.27,89.85-71.19,147-5.46,45-.89,89,17.78,130.29C62.66,447.59,135.06,500.4,237.63,510c44.64,4.16,87.59-4.14,127.74-24,77-38.08,124-99.63,141.25-183.8,1.83-8.92,2.53-18.1,3.39-27.19.49-5.11-2-8.16-6.19-8.65-4.47-.53-7.49,2-8.49,7.11-.26,1.3-.19,2.66-.44,4-3.09,16.12-4.74,32.69-9.59,48.27-19.22,61.81-57.75,108.46-114,140.34-9.43,5.33-19.52,9.5-29.31,14.21l-.69-1.11c1-1.26,2-2.54,3-3.78,16.36-19.7,32.61-39.49,49.13-59.05,7.06-8.37,11.12-17.61,10.84-28.64-.06-2.32.42-4.72,0-7-1-5.29,1.49-7.73,6.19-9.44a166,166,0,0,0,15.93-7.07c9.45-4.58,15.14-12.2,17.31-22.42,2.65-12.46-4.27-24.12-16.19-26.92a37.26,37.26,0,0,0-9.91-.59c-2.91.12-4.45-.92-5.75-3.51q-8.42-16.68-17.2-33.17c-7.47-14.05-19.24-21.1-35.18-21.11-12.47,0-24.95.23-37.41-.08-10.45-.26-19.51,2.44-27.53,9.4-6.7,5.8-12.59,6-20.14,1.44-11.53-6.94-23-14-34.37-21.19-1.25-.79-2.78-2.36-2.82-3.61-.25-8.25-.13-16.51-.13-25.3,4.44,0,8.28.42,12-.09,7.23-1,11.81,1.64,16,7.75,8.45,12.33,20.58,11.14,27.76-2.13,9.25-17.1,18.51-34.18,27.56-51.37,1.64-3.11,3.55-4.29,7-4.07a114.35,114.35,0,0,0,13,0c9.63-.48,15-6,15.17-15.54.14-6.49-.1-13,.14-19.45.06-1.45,1.18-3.86,2.21-4.09,7.1-1.64,10.95-6,11.79-13s-3.11-11.48-8.6-15c-16.59-10.76-33.28-21.37-49.68-32.42-17-11.46-36-12.63-55.51-11.62-4.23.22-6.75,3.06-6.81,7.22s2.52,6.83,6.65,7.42a52.9,52.9,0,0,0,8,.18c10.17-.1,20.44-.31,29.83,4.24a191.56,191.56,0,0,1,19.86,11.39c13.39,8.61,26.58,17.52,40.09,26.47-10.82,4.94-12.87,8.24-12.87,20.16,0,6.25,0,12.5,0,19.21-5.69,0-10.66.15-15.61,0-7.87-.29-13.11,3.2-16.75,10.13-8.88,16.92-18,33.68-27.11,50.49-.82,1.51-1.82,2.94-2.92,4.71-2.07-2.71-3.91-4.86-5.46-7.21-3.7-5.59-8.74-8.4-15.5-8.26-6.32.13-12.64-.07-19,.07-10.5.24-16,5.63-16.17,16.07-.17,8,.05,16-.06,23.95-.1,7.14,2.83,12.31,9,16,11.42,6.8,22.66,13.89,34,20.84,14.94,9.17,26.76,8.43,40.18-2.7a20.31,20.31,0,0,1,13.69-5c13.13.1,26.27.17,39.41,0,11.17-.15,19,4.72,23.93,14.67,4.37,8.77,9.62,17.15,13.39,26.15,5,12,12.4,18.75,26.19,17.1,5-.59,7.52,2.79,7.26,7.92a14.52,14.52,0,0,1-7.79,12.56c-4.64,2.56-9.4,5.2-14.44,6.65-14.1,4.06-19.2,13.21-17.56,27.38,1.06,9.17-2.28,17-8.37,24.17-21.07,24.86-42,49.83-62.39,75.26-6.28,7.83-14.43,7-22.8,9.08.2-13-1.12-25.12,3.91-37,7.76-18.4,13.9-37.22,11.82-57.87-1-10.24-3.21-14.57-13.05-18.21-7-2.59-14-5.13-21-7.79-8.16-3.11-13.4-8.8-13.88-17.7a148.44,148.44,0,0,1,.22-22.42c2-20.25-7.83-39.62-26.36-47.73-18.08-7.9-36.76-14.44-55.22-21.44a6.63,6.63,0,0,1-4.78-5.52c-3.43-16.42-7.16-32.77-10.78-49.14-2.19-9.95-7.18-14-17.45-14.11-9-.06-18-.14-26.94.06-3.1.07-4.7-.86-5.95-3.81-4.21-9.94-8.29-20-13.31-29.5-4-7.68-4.24-14.12-.18-22.15,7.77-15.37,4.87-30-6.64-42.8-3-3.32-6.15-6.47-9.76-10.26,8.47-7.13,17-13.8,24.89-21.11,6.14-5.68,11.92-6.92,19.36-2.5,5.1,3,10.91,4.86,16.45,7.1,2.29.94,4.7,2.21,7.07,2.23q33.68.28,67.35.07c3.83,0,6.59-2.28,7.09-6.4s-1.41-6.78-5.19-8a16.18,16.18,0,0,0-4.94-.41c-17,0-33.95-.65-50.87.21-11.49.57-20.9-4-30.71-8.48a5.56,5.56,0,0,1,.76-.87c.55-.37,1.14-.68,1.72-1Q210.59,6.59,291,18.22a233.49,233.49,0,0,1,98.46,38.4c1.27.85,2.83,2.84,2.64,4.05-1.81,11.67,1.74,22.38,5.4,33.09,2.41,7.07,3.26,14.21,1.33,21.55-6,23,10.29,44.68,29,50.35,16.79,5.08,34.19,8.22,51.4,11.82,3,.62,4.09,1.55,5,4.28A236.7,236.7,0,0,1,495,235.87c.55,7.07,3.49,10.46,8.5,10,4.81-.41,7.24-4,6.37-10.89-1.5-12-2.79-24.13-5.39-35.94C482.88,100.53,400.58,21.75,301,4.06,290.86,2.26,280.6,1.33,270.42,0Z"/><path d="M270.42,0C280.6,1.33,290.86,2.26,301,4.06c99.61,17.69,181.91,96.47,203.54,195,2.6,11.81,3.89,23.92,5.39,35.94.87,6.93-1.56,10.48-6.37,10.89-5,.42-7.95-3-8.5-10a236.7,236.7,0,0,0-10.76-54.11c-.88-2.73-2-3.66-5-4.28-17.21-3.6-34.61-6.74-51.4-11.82-18.74-5.67-35-27.34-29-50.35,1.93-7.34,1.08-14.48-1.33-21.55-3.66-10.71-7.21-21.42-5.4-33.09.19-1.21-1.37-3.2-2.64-4.05A233.49,233.49,0,0,0,291,18.22Q210.69,6.63,139.35,45.72c-.58.32-1.17.63-1.72,1a5.56,5.56,0,0,0-.76.87c9.81,4.5,19.22,9,30.71,8.48,16.92-.86,33.91-.23,50.87-.21a16.18,16.18,0,0,1,4.94.41c3.78,1.21,5.68,3.95,5.19,8s-3.26,6.38-7.09,6.4q-33.68.21-67.35-.07c-2.37,0-4.78-1.29-7.07-2.23-5.54-2.24-11.35-4.08-16.45-7.1-7.44-4.42-13.22-3.18-19.36,2.5-7.91,7.31-16.42,14-24.89,21.11,3.61,3.79,6.78,6.94,9.76,10.26,11.51,12.81,14.41,27.43,6.64,42.8-4.06,8-3.87,14.47.18,22.15,5,9.53,9.1,19.56,13.31,29.5,1.25,2.95,2.85,3.88,5.95,3.81,9-.2,18-.12,26.94-.06,10.27.08,15.26,4.16,17.45,14.11,3.62,16.37,7.35,32.72,10.78,49.14a6.63,6.63,0,0,0,4.78,5.52c18.46,7,37.14,13.54,55.22,21.44,18.53,8.11,28.34,27.48,26.36,47.73a148.44,148.44,0,0,0-.22,22.42c.48,8.9,5.72,14.59,13.88,17.7,7,2.66,14,5.2,21,7.79,9.84,3.64,12,8,13.05,18.21,2.08,20.65-4.06,39.47-11.82,57.87-5,11.92-3.71,24-3.91,37,8.37-2,16.52-1.25,22.8-9.08,20.37-25.43,41.32-50.4,62.39-75.26,6.09-7.19,9.43-15,8.37-24.17-1.64-14.17,3.46-23.32,17.56-27.38,5-1.45,9.8-4.09,14.44-6.65a14.52,14.52,0,0,0,7.79-12.56c.26-5.13-2.28-8.51-7.26-7.92-13.79,1.65-21.19-5.14-26.19-17.1-3.77-9-9-17.38-13.39-26.15-5-9.95-12.76-14.82-23.93-14.67-13.14.18-26.28.11-39.41,0a20.31,20.31,0,0,0-13.69,5C291.78,287.46,280,288.2,265,279c-11.33-6.95-22.57-14-34-20.84-6.2-3.68-9.13-8.85-9-16,.11-8-.11-16,.06-23.95.21-10.44,5.67-15.83,16.17-16.07,6.31-.14,12.63.06,19-.07,6.76-.14,11.8,2.67,15.5,8.26,1.55,2.35,3.39,4.5,5.46,7.21,1.1-1.77,2.1-3.2,2.92-4.71,9.07-16.81,18.23-33.57,27.11-50.49,3.64-6.93,8.88-10.42,16.75-10.13,4.95.18,9.92,0,15.61,0,0-6.71,0-13,0-19.21,0-11.92,2.05-15.22,12.87-20.16-13.51-9-26.7-17.86-40.09-26.47a191.56,191.56,0,0,0-19.86-11.39c-9.39-4.55-19.66-4.34-29.83-4.24a52.9,52.9,0,0,1-8-.18c-4.13-.59-6.71-3.22-6.65-7.42s2.58-7,6.81-7.22c19.5-1,38.5.16,55.51,11.62,16.4,11,33.09,21.66,49.68,32.42,5.49,3.56,9.45,8,8.6,15s-4.69,11.4-11.79,13c-1,.23-2.15,2.64-2.21,4.09-.24,6.47,0,13-.14,19.45-.2,9.57-5.54,15.06-15.17,15.54a114.35,114.35,0,0,1-13,0c-3.44-.22-5.35,1-7,4.07-9,17.19-18.31,34.27-27.56,51.37-7.18,13.27-19.31,14.46-27.76,2.13-4.18-6.11-8.76-8.76-16-7.75-3.72.51-7.56.09-12,.09,0,8.79-.12,17.05.13,25.3,0,1.25,1.57,2.82,2.82,3.61,11.4,7.15,22.84,14.25,34.37,21.19,7.55,4.55,13.44,4.36,20.14-1.44,8-7,17.08-9.66,27.53-9.4,12.46.31,24.94.06,37.41.08,15.94,0,27.71,7.06,35.18,21.11q8.77,16.49,17.2,33.17c1.3,2.59,2.84,3.63,5.75,3.51a37.26,37.26,0,0,1,9.91.59c11.92,2.8,18.84,14.46,16.19,26.92-2.17,10.22-7.86,17.84-17.31,22.42a166,166,0,0,1-15.93,7.07c-4.7,1.71-7.15,4.15-6.19,9.44.4,2.24-.08,4.64,0,7,.28,11-3.78,20.27-10.84,28.64-16.52,19.56-32.77,39.35-49.13,59.05-1,1.24-2,2.52-3,3.78l.69,1.11c9.79-4.71,19.88-8.88,29.31-14.21,56.28-31.88,94.81-78.53,114-140.34,4.85-15.58,6.5-32.15,9.59-48.27.25-1.31.18-2.67.44-4,1-5.15,4-7.64,8.49-7.11,4.17.49,6.68,3.54,6.19,8.65-.86,9.09-1.56,18.27-3.39,27.19C489.41,386.32,442.33,447.87,365.37,486c-40.15,19.87-83.1,28.17-127.74,24-102.57-9.56-175-62.37-217.19-155.81C1.77,312.85-2.8,268.85,2.66,223.86c6.92-57.14,30.78-106.24,71.19-147,35.87-36.16,79-59.76,128.84-70.67C214.17,3.68,226,2.67,237.64.94c1.62-.25,3.22-.62,4.84-.94ZM76.52,96.54c-64,70.1-84.09,182.75-29.16,278.4,55.11,96,157.54,129.47,233.11,119.16a28.49,28.49,0,0,0,.19-4.34c-1.78-17.82,2-34.64,9-50.91.66-1.52,1-3.19,1.74-4.66,6.36-12.62,5.05-26.13,4.8-39.81-8.25-3.08-16.52-6-24.69-9.23-13.17-5.19-21.27-14.81-22.78-28.92a134.48,134.48,0,0,1,0-24.41c1.45-18.74-5.84-30.82-23.4-37.49-16.6-6.3-33.16-12.73-49.84-18.81-6.94-2.53-11-6.93-12.33-14.19-1.28-6.86-3-13.63-4.46-20.44-2.39-10.8-4.8-21.6-7.24-32.6-10.12,0-19.76-.24-29.38.07-9.46.31-15.69-3.4-19.34-12.36-4.62-11.37-9.29-22.81-15.11-33.59-5.34-9.9-4.89-18.72.5-28.18a29.77,29.77,0,0,0,3.57-11.74C92.77,110.39,83.84,103.92,76.52,96.54ZM407.91,70.18l-1.56.5c1.66,5.67,3.15,11.39,5,17,3.38,10.27,4.69,20.48,2,31.27-3.59,14.61,5,27.69,19.56,32.61,13.73,4.65,28.31,6.8,42.52,10,.18,0,.46-.34.91-.7A240.86,240.86,0,0,0,407.91,70.18Z"/><path class="cls-1" d="M76.52,96.54c7.32,7.38,16.25,13.85,15.14,25.95a29.77,29.77,0,0,1-3.57,11.74c-5.39,9.46-5.84,18.28-.5,28.18,5.82,10.78,10.49,22.22,15.11,33.59,3.65,9,9.88,12.67,19.34,12.36,9.62-.31,19.26-.07,29.38-.07,2.44,11,4.85,21.8,7.24,32.6,1.51,6.81,3.18,13.58,4.46,20.44,1.34,7.26,5.39,11.66,12.33,14.19,16.68,6.08,33.24,12.51,49.84,18.81,17.56,6.67,24.85,18.75,23.4,37.49a134.48,134.48,0,0,0,0,24.41c1.51,14.11,9.61,23.73,22.78,28.92,8.17,3.21,16.44,6.15,24.69,9.23.25,13.68,1.56,27.19-4.8,39.81-.75,1.47-1.08,3.14-1.74,4.66-7,16.27-10.74,33.09-9,50.91a28.49,28.49,0,0,1-.19,4.34c-75.57,10.31-178-23.19-233.11-119.16C-7.57,279.29,12.49,166.64,76.52,96.54Z"/><path class="cls-1" d="M407.91,70.18a240.86,240.86,0,0,1,68.46,90.69c-.45.36-.73.74-.91.7-14.21-3.21-28.79-5.36-42.52-10-14.56-4.92-23.15-18-19.56-32.61,2.65-10.79,1.34-21-2-31.27-1.84-5.61-3.33-11.33-5-17Z"/></g></g></svg>