<?xml version="1.0" encoding="utf-8"?>
<!-- Generator: Adobe Illustrator 25.0.1, SVG Export Plug-In . SVG Version: 6.00 Build 0)  -->
<svg version="1.1" id="Layer_1" xmlns="http://www.w3.org/2000/svg" xmlns:xlink="http://www.w3.org/1999/xlink" x="0px" y="0px"
	 viewBox="0 0 2500 2444" style="enable-background:new 0 0 2500 2444;" xml:space="preserve">
<style type="text/css">
	.st0{display:none;fill:#DC4A38;}
	.st1{fill:#DC4A38;}
	.st2{fill:#FFFFFF;}
</style>
<path class="st0" d="M2422,0H78C35,0,0.1,34.9,0,77.9c0,0,0,0,0,0v2288c0,43.1,34.9,78,78,78.1c0,0,0,0,0,0H2422
	c43.1,0,78-34.9,78-78c0,0,0,0,0-0.1V78C2500,34.9,2465.1,0,2422,0C2422,0,2422,0,2422,0L2422,0z"/>
<circle class="st1" cx="1250" cy="1222" r="1215.3"/>
<g>
	<path class="st2" d="M1311.1,1338l-76.7-59.6c-23.4-19.4-55.3-45-55.3-91.8c0-47,32-76.9,59.7-104.6
		c89.4-70.3,178.7-145.2,178.7-303c0-162.2-102.1-247.6-151-288.1h131.9l138.5-87h-419.5c-115.1,0-281,27.2-402.4,127.5
		c-91.5,79-136.2,187.9-136.2,285.9c0,166.4,127.8,335.1,353.4,335.1c21.3,0,44.6-2.1,68.1-4.3c-10.5,25.6-21.2,47-21.2,83.2
		c0,66.1,34,106.6,63.9,145c-95.9,6.6-274.9,17.2-406.8,98.3c-125.6,74.7-163.9,183.5-163.9,260.2c0,158,148.9,305.2,457.7,305.2
		c366.2,0,560-202.6,560-403.2C1490,1489.5,1404.9,1417,1311.1,1338L1311.1,1338z M1032.2,1092.7c-183.2,0-266.1-236.8-266.1-379.7
		c0-55.6,10.5-113.1,46.8-157.9c34.2-42.7,93.6-70.4,149.2-70.4c176.6,0,268.2,238.9,268.2,392.6c0,38.4-4.2,106.6-53.2,155.8
		C1142.8,1067.2,1085.4,1092.7,1032.2,1092.7z M1034.3,1950.7c-227.8,0-374.7-109-374.7-260.5c0-151.5,136.2-202.7,183.1-219.7
		c89.4-30.1,204.4-34.3,223.6-34.3c21.3,0,31.9,0,48.9,2.1c161.9,115.2,232.2,172.7,232.2,281.8
		C1347.4,1852.3,1238.8,1950.7,1034.3,1950.7L1034.3,1950.7z M1848.8,1089.4V876.1h-105.4v213.3h-213v106.5h213v214.6h105.4v-214.6
		h214.1v-106.5L1848.8,1089.4z"/>
</g>
</svg>
