<svg xmlns="http://www.w3.org/2000/svg" viewBox="0 0 481 497"><defs><style>.cls-1{fill:#fff;}</style></defs><g id="Layer_2" data-name="Layer 2"><g id="Layer_1-2" data-name="Layer 1"><path class="cls-1" d="M481,199.68V484.81c-2.35-6.63-7.43-7.77-13.78-7.6-12.14.32-24.28.09-36.85.09V418.8c0-10.47.1-20.95-.06-31.42a9.27,9.27,0,0,0-9.54-9.46c-5,.12-8.82,4-9.13,9.43-.07,1.25,0,2.5,0,3.75V477H115.33v-65.8c0-8.29.11-16.57-.07-24.86a9.27,9.27,0,0,0-9.12-9.4c-5.22-.11-9.23,3.87-9.54,9.49-.07,1.25,0,2.5,0,3.75V477H70.32v-5.83c0-80,.1-160.07-.19-240.1,0-6.4,2.29-10.43,6.81-14.05q18.19-14.62,36.36-29.32L148.93,159c12.73-10.26,25.44-20.56,38.21-30.77,7.45-6,15.08-11.66,22.5-17.64,10.4-8.38,20.67-16.92,31.43-25.75,8.31,7,16.2,13.73,24.26,20.29C278.5,115.8,291.79,126.36,305,137c10.79,8.7,21.52,17.47,32.3,26.17q19.81,16,39.7,31.91c9.16,7.3,18.45,14.46,27.69,21.66,4.69,3.65,7.33,7.71,7.13,14.38-.58,19.52-.21,39.08-.2,58.61,0,8.45-.08,16.89.05,25.33a8.89,8.89,0,0,0,6.49,8.8c4,1.38,7.72.29,10-3.11a15,15,0,0,0,2.15-7.86c.17-23.13.09-46.27.11-69.4,0-1.6.14-3.21.22-5,7.69,3.73,10.33,3.35,16.13-2.57q13.72-14,27.28-28.24C476.47,205.18,478.68,202.37,481,199.68ZM340.36,314.8q0-44.76,0-89.52c0-10.7-2.67-13.41-13.19-13.41h-172c-11,0-13.62,2.55-13.62,13.44V404.82c0,9.36,3,12.45,12.26,12.45H328.13c9.2,0,12.22-3.09,12.22-12.49Q340.37,359.8,340.36,314.8ZM115.3,348.29a9.35,9.35,0,0,0-18.7.26,9.35,9.35,0,1,0,18.7-.26Zm315,5a9.34,9.34,0,1,0-9.4,9.51A9.46,9.46,0,0,0,430.33,353.33Z"/><path class="cls-1" d="M7.5,497H0V0H481V194.05c-1.78-2.28-3.22-5-5.4-6.76q-25.43-20.62-51.14-40.89a8.3,8.3,0,0,1-3.54-7.42q.18-45.72.05-91.44c0-7.5-3.5-11-10.83-11q-25.78-.07-51.57,0c-7.06,0-10.6,3.57-10.66,10.74-.09,10.63,0,21.26,0,31.89V85c-6.14-5.29-11.17-9.81-16.4-14.09Q314.3,56.86,297,43,272.55,23.39,248.05,3.87c-5.36-4.26-8.92-4.2-14.3.13-5.68,4.57-11.15,9.41-16.81,14Q198.82,32.75,180.6,47.38,162.78,61.75,145,76.11q-18.37,14.81-36.73,29.64Q90.61,120,73,134.21c-13.23,10.65-26.43,21.33-39.71,31.91-9,7.2-18.24,14.21-27.3,21.39-6.16,4.89-6.65,11.41-1.32,17,9.73,10.11,19.62,20.06,29.23,30.28,5,5.37,10.16,9,17.42,3.51V477.3H46.46q-17.58,0-35.16,0c-4,0-7.27,1.15-9,5.3C-.32,489,.82,492.43,7.5,497Z"/><path d="M7.5,497c-6.68-4.57-7.82-8-5.18-14.39,1.71-4.15,5-5.29,9-5.3q17.58,0,35.16,0H51.3v-239c-7.26,5.51-12.37,1.86-17.42-3.51-9.61-10.22-19.5-20.17-29.23-30.28-5.33-5.54-4.84-12.06,1.32-17,9.06-7.18,18.26-14.19,27.3-21.39C46.55,155.54,59.75,144.86,73,134.21Q90.62,120,108.23,105.75,126.61,90.93,145,76.11q17.81-14.39,35.64-28.73Q198.78,32.71,216.94,18c5.66-4.6,11.13-9.44,16.81-14,5.38-4.33,8.94-4.39,14.3-.13Q272.57,23.36,297,43q17.29,13.89,34.51,27.9c5.23,4.28,10.26,8.8,16.4,14.09V79.13c0-10.63-.06-21.26,0-31.89.06-7.17,3.6-10.72,10.66-10.74q25.79-.09,51.57,0c7.33,0,10.82,3.54,10.83,11q.07,45.72-.05,91.44a8.3,8.3,0,0,0,3.54,7.42q25.73,20.25,51.14,40.89c2.18,1.78,3.62,4.48,5.4,6.76v5.63c-2.32,2.69-4.53,5.5-7,8.06q-13.56,14.2-27.28,28.24c-5.8,5.92-8.44,6.3-16.13,2.57-.08,1.75-.22,3.36-.22,5,0,23.13.06,46.27-.11,69.4a15,15,0,0,1-2.15,7.86c-2.24,3.4-5.95,4.49-10,3.11a8.89,8.89,0,0,1-6.49-8.8c-.13-8.44-.05-16.88-.05-25.33,0-19.53-.38-39.09.2-58.61.2-6.67-2.44-10.73-7.13-14.38-9.24-7.2-18.53-14.36-27.69-21.66q-19.92-15.85-39.7-31.91c-10.78-8.7-21.51-17.47-32.3-26.17-13.21-10.66-26.5-21.22-39.67-31.94-8.06-6.56-15.95-13.33-24.26-20.29-10.76,8.83-21,17.37-31.43,25.75-7.42,6-15,11.69-22.5,17.64-12.77,10.21-25.48,20.51-38.21,30.77L113.3,187.72Q95.12,202.39,76.94,217c-4.52,3.62-6.83,7.65-6.81,14.05.29,80,.19,160.07.19,240.1V477H96.57v-86.8c0-1.25,0-2.5,0-3.75.31-5.62,4.32-9.6,9.54-9.49a9.27,9.27,0,0,1,9.12,9.4c.18,8.29.06,16.57.07,24.86V477H411.62V391.1c0-1.25-.05-2.5,0-3.75.31-5.41,4.1-9.31,9.13-9.43a9.27,9.27,0,0,1,9.54,9.46c.16,10.47.06,20.95.06,31.42v58.5c12.57,0,24.71.23,36.85-.09,6.35-.17,11.43,1,13.78,7.6V497ZM435.91,217.74l20.51-20.45c-3.56-3.19-7.35-6.84-11.4-10.16-11.43-9.38-23-18.63-34.48-27.91q-18.92-15.27-37.83-30.5-17.08-13.78-34.14-27.6C325.47,90.57,312.4,80,299.24,69.5c-10-8-20.24-15.7-30.23-23.72-9.31-7.48-18.43-15.21-28-23.15-10.39,8.58-20.29,16.84-30.28,25-11.7,9.55-23.48,19-35.24,28.49q-19.28,15.56-38.56,31.06-16.73,13.5-33.43,27c-12.6,10.17-25.17,20.38-37.84,30.46-9.77,7.79-19.75,15.31-29.51,23.12-3.91,3.14-7.46,6.75-10.44,9.47l20.1,20.18a8,8,0,0,0,1.1-.72q17.46-14.07,34.9-28.17,18.16-14.67,36.35-29.32,20.38-16.41,40.78-32.81c10.3-8.3,20.52-16.7,30.83-25q22.39-18,44.88-35.93c4.49-3.56,8.17-3.53,12.77,0,4.28,3.33,8.2,7.09,12.41,10.51q18.3,14.88,36.71,29.65c11.87,9.58,23.7,19.22,35.62,28.75q29.4,23.5,58.88,46.91c3.3,2.63,6.67,5.17,9.94,7.84C412.77,198.8,424.56,208.46,435.91,217.74Zm-34-89.54V56.55H366.63c0,13.63,0,26.89.07,40.15a5.25,5.25,0,0,0,1.45,3.61C379.08,109.47,390.13,118.5,401.92,128.2Z"/><path d="M340.36,314.8q0,45,0,90c0,9.4-3,12.49-12.22,12.49H153.84c-9.22,0-12.26-3.09-12.26-12.45V225.31c0-10.89,2.6-13.44,13.62-13.44h172c10.52,0,13.19,2.71,13.19,13.41Q340.37,270,340.36,314.8Zm-109,83.5V324.73H160.68V398.3Zm90.06-73.55H250.72v73.52h70.67Zm-90-92.85H160.71v72.57h70.68Zm89.88,72.62V231.94H250.6v72.58Z"/><path d="M115.3,348.29a9.35,9.35,0,1,1-18.7.26,9.35,9.35,0,0,1,18.7-.26Z"/><path d="M430.33,353.33a9.34,9.34,0,1,1-9.28-9.18A9.46,9.46,0,0,1,430.33,353.33Z"/><path class="cls-1" d="M435.91,217.74c-11.35-9.28-23.14-18.94-35-28.56-3.27-2.67-6.64-5.21-9.94-7.84q-29.44-23.44-58.88-46.91c-11.92-9.53-23.75-19.17-35.62-28.75Q278.15,90.86,259.8,76c-4.21-3.42-8.13-7.18-12.41-10.51-4.6-3.57-8.28-3.6-12.77,0q-22.53,17.85-44.88,35.93c-10.31,8.29-20.53,16.69-30.83,25q-20.35,16.44-40.78,32.81Q100,173.85,81.78,188.53q-17.46,14.08-34.9,28.17a8,8,0,0,1-1.1.72l-20.1-20.18c3-2.72,6.53-6.33,10.44-9.47,9.76-7.81,19.74-15.33,29.51-23.12,12.67-10.08,25.24-20.29,37.84-30.46q16.73-13.5,33.43-27,19.26-15.54,38.56-31.06C187.22,66.63,199,57.17,210.7,47.62c10-8.15,19.89-16.41,30.28-25,9.6,7.94,18.72,15.67,28,23.15,10,8,20.21,15.75,30.23,23.72C312.4,80,325.47,90.57,338.57,101.12q17.08,13.78,34.14,27.6,18.9,15.25,37.83,30.5c11.51,9.28,23,18.53,34.48,27.91,4.05,3.32,7.84,7,11.4,10.16Z"/><path class="cls-1" d="M401.92,128.2c-11.79-9.7-22.84-18.73-33.77-27.89a5.25,5.25,0,0,1-1.45-3.61c-.11-13.26-.07-26.52-.07-40.15h35.29Z"/><path class="cls-1" d="M231.33,398.3H160.68V324.73h70.65Z"/><path class="cls-1" d="M321.39,324.75v73.52H250.72V324.75Z"/><path class="cls-1" d="M231.39,231.9v72.57H160.71V231.9Z"/><path class="cls-1" d="M321.27,304.52H250.6V231.94h70.67Z"/></g></g></svg>