<?xml version="1.0" encoding="utf-8"?>
<!-- Generator: Adobe Illustrator 25.0.1, SVG Export Plug-In . SVG Version: 6.00 Build 0)  -->
<svg version="1.1" id="Layer_1" xmlns="http://www.w3.org/2000/svg" xmlns:xlink="http://www.w3.org/1999/xlink" x="0px" y="0px"
	 viewBox="0 0 623.6 306" style="enable-background:new 0 0 623.6 306;" xml:space="preserve">
<style type="text/css">
	.st0{fill:#FFFFFF;}
	.st1{font-family:'Fontjek';}
	.st2{font-size:178px;}
	.st3{clip-path:url(#SVGID_2_);}
	.st4{fill:none;stroke:#FFFFFF;stroke-width:4;}
	.st5{fill:#E08F1D;}
</style>
<g id="Layer_2_1_">
	<g id="design4">
		<text transform="matrix(1 0 0 1 58.41 173.84)" class="st0 st1 st2">Apah</text>
		<g>
			<defs>
				<path id="SVGID_1_" d="M322.9,215.5c0.6-2.1,1.2-4.3,1.7-6.4c0.4-1.8,0.7-3.7,0.7-5.5c0-2.4-0.6-4.2-1.8-5.3
					c-1.5-1.3-3.4-2-5.3-2v-4.6h29v4.6c-1.6,0.3-3.1,1-4.3,2c-1.3,1.1-2.4,2.5-3.1,4c-1.4,2.8-2.5,5.7-3.5,8.6l-26.1,76.3h-16.5
					l-15.7-65.4l-18.7,65.4h-17.4l-21-78c-0.6-2.7-1.6-5.4-2.7-7.9c-0.6-1.3-1.5-2.4-2.6-3.3c-1.1-0.8-2.4-1.4-3.7-1.7v-4.6h37.5
					v4.6c-2,0.1-3.8,0.8-5.4,2c-1.2,1.2-1.8,2.8-1.7,4.5c0,2.5,0.7,6.3,2,11.5l12,48.4l20-71h15.7l16.3,71L322.9,215.5z
					 M386.9,277.5l-1-0.4c-3.2,3.3-7,6-11.1,8.1c-3.6,1.7-7.5,2.5-11.5,2.5c-3.6,0.1-7.2-0.7-10.4-2.2c-2.8-1.3-5.1-3.4-6.7-6.1
					c-1.5-2.7-2.3-5.9-2.3-9c0-6.8,3.4-12.2,10.1-16.1c6.7-3.9,16.9-6.4,30.5-7.3v-6.6c0-4.3-0.5-7.7-1.5-10c-1.2-4-5.1-6.7-9.3-6.4
					c-1.9,0-3.8,0.3-5.5,1.1c-1.8,1-3.2,2.4-4.2,4.2c-1.5,2.7-2.4,5.6-2.8,8.6h-13.2v-12.7c4.3-1.9,7.8-3.4,10.7-4.4
					c2.8-1,5.6-1.8,8.4-2.5c2.4-0.6,4.9-1.1,7.4-1.4c2.2-0.3,4.4-0.4,6.5-0.4c5.6,0,10.1,0.7,13.5,2.2c3.3,1.4,6,4,7.6,7.2
					c1.7,3.3,2.5,7.9,2.5,13.9V267c0,3.1,0.1,5.4,0.2,7.1c0.1,1.3,0.3,2.5,0.7,3.7c0.2,0.7,0.6,1.4,1.1,2c0.5,0.5,1.1,0.9,1.7,1.2
					c1.2,0.5,2.5,0.9,3.8,1.1v4.6h-25.9L386.9,277.5z M384.6,253.7c-7.2,0.2-12.5,1.5-16,4c-3.5,2.5-5.2,6.2-5.2,11
					c0,2.9,0.8,5.1,2.4,6.6c1.8,1.6,4.1,2.4,6.5,2.3c2.1,0,4.2-0.6,6.1-1.7c1.9-1.1,3.4-2.7,4.5-4.6c1.1-1.8,1.7-3.9,1.7-6.1
					L384.6,253.7z M469.7,278.3c-3.3,3-7.1,5.5-11.1,7.3c-3.3,1.4-6.9,2.2-10.5,2.2c-6.9,0-12.1-1.9-15.5-5.6s-5.1-9.4-5.1-17v-38.9
					h-8.7v-4.8c2.2-0.2,4.4-1,6.3-2.1c1.4-0.9,2.4-2.2,3.1-3.7c0.9-1.9,1.5-4,1.8-6.1c0.5-3.1,0.8-6.3,1-9.4h16.6v17.4h19.8v8.7
					h-19.9v31.4c-0.1,3.9,0.1,7.8,0.7,11.6c0.3,2,1.1,4,2.5,5.5c1.1,1.2,2.7,1.8,4.3,1.8c1.2,0,2.3-0.1,3.5-0.4
					c1.1-0.3,2.2-0.7,3.2-1.2c1.3-0.7,2.5-1.6,3.6-2.6L469.7,278.3z M535.2,274c-4.7,5-9.4,8.6-14.1,10.6c-5,2.2-10.5,3.2-16,3.1
					c-10.8,0-18.9-3-24.4-8.9c-5.5-5.9-8.2-14.7-8.2-26.4c0-7.5,1.4-14,4.2-19.5c2.6-5.3,6.8-9.6,11.9-12.4c5.5-2.9,11.7-4.4,18-4.2
					c3.8-0.1,7.5,0.4,11.1,1.5c2.9,0.9,5.7,2.2,8.2,4.1c2.3,1.7,4.2,3.9,5.6,6.3c1.8,3.1,3.2,6.5,4,10c1,4.6,1.5,9.3,1.5,14h-44.2
					c0,8.4,1.5,14.6,4.5,18.5s7.4,6,13.5,6c3.3,0,6.5-0.6,9.5-2c3.4-1.8,6.6-4.1,9.2-7L535.2,274z M516.4,244.8
					c-0.2-7.1-1.1-12.4-2.8-15.9c-1.3-3.3-4.6-5.3-8.1-5.2c-3.6,0-6.4,1.8-8.5,5.4s-3.4,8.8-3.8,15.7L516.4,244.8z M573.9,227.6
					l0.9,0.2c2.9-3.6,6.4-6.5,10.5-8.6c3.6-1.8,7.6-2.7,11.6-2.6c3,0,6,0.3,8.9,0.9v19.2h-12.6c-0.6-2.3-1.6-4.4-3.1-6.2
					c-1.3-1.4-3.2-2.2-5.1-2.2c-1.2,0-2.3,0.4-3.4,0.9c-1.3,0.7-2.4,1.6-3.4,2.6c-1,1-1.7,2.2-2.2,3.5c-0.4,1.2-0.7,2.4-0.9,3.6
					c-0.2,1.8-0.2,3.6-0.2,5.4v22.2c-0.1,3.1,0.1,6.2,0.5,9.3c0.2,1.6,0.9,3,2,4.1c1.4,1.2,3.1,1.9,4.9,2.1v4.6h-34.4v-4.6
					c1.7-0.3,3.3-1.2,4.6-2.4c0.9-1.2,1.5-2.5,1.7-4c0.4-3,0.5-6.1,0.5-9.1V238c0-3.4-0.1-6-0.2-7.6c0-1.4-0.3-2.7-0.8-4
					c-0.4-1-1.1-1.8-2-2.4c-1.5-0.8-3-1.4-4.7-1.6v-4.7l19.1-0.6h8.8L573.9,227.6z"/>
			</defs>
			<clipPath id="SVGID_2_">
				<use xlink:href="#SVGID_1_"  style="overflow:visible;"/>
			</clipPath>
			<g class="st3">
				<polygon class="st0" points="421.8,205.5 466.2,209.3 452.8,178.5 				"/>
				<path class="st0" d="M429.4,287.8c0.8,0.2,30.8-26.8,30.8-26.8l18,25.6l-45,12.4L429.4,287.8z"/>
				<path class="st0" d="M378,239.4c0,0,16.8,14.6,0,21.6s-14.9,45-25.8,38s-26.8-37.9-13.9-47.4S378,239.4,378,239.4z"/>
				<path class="st0" d="M340.2,219c2-1,33.8-12.8,33.8-12.8s8.8,21.3,0,28s-33.8,10.6-33.8,10.6V219z"/>
				<path class="st0" d="M547,292.4c0,0,33.3-18.4,34.3-31.4s3.2,38.9,3.2,38.9L547,292.4z"/>
				<path class="st0" d="M572.6,225c0,0,38-34.7,49.5-6.5s-48.6,38.4-49,35.4S572.6,225,572.6,225z"/>
				<path class="st0" d="M538.4,254.4c0,0,0.4-32.1-7.2-38.4c-7.3-6.1-36.3-3.4-44,0c-15.6,7-17.4,38.1-15.9,39.5
					C472.8,256.8,538.4,254.4,538.4,254.4z"/>
				<path class="st0" d="M197.2,186c0,1,49,120,49,120s17-8,17-9s-11-119-11-119L197.2,186z"/>
				<polygon class="st0" points="235.2,298 255.2,304 293.2,177 265.9,180 				"/>
			</g>
		</g>
		<path class="st4" d="M322.9,215.5c0.6-2.1,1.2-4.3,1.7-6.4c0.4-1.8,0.7-3.7,0.7-5.5c0-2.4-0.6-4.2-1.8-5.3c-1.5-1.3-3.4-2-5.3-2
			v-4.6h29v4.6c-1.6,0.3-3.1,1-4.3,2c-1.3,1.1-2.4,2.5-3.1,4c-1.4,2.8-2.5,5.7-3.5,8.6l-26.1,76.3h-16.5l-15.7-65.4l-18.7,65.4
			h-17.4l-21-78c-0.6-2.7-1.6-5.4-2.7-7.9c-0.6-1.3-1.5-2.4-2.6-3.3c-1.1-0.8-2.4-1.4-3.7-1.7v-4.6h37.5v4.6c-2,0.1-3.8,0.8-5.4,2
			c-1.2,1.2-1.8,2.8-1.7,4.5c0,2.5,0.7,6.3,2,11.5l12,48.4l20-71h15.7l16.3,71L322.9,215.5z M386.9,277.5l-1-0.4
			c-3.2,3.3-7,6-11.1,8.1c-3.6,1.7-7.5,2.5-11.5,2.5c-3.6,0.1-7.2-0.7-10.4-2.2c-2.8-1.3-5.1-3.4-6.7-6.1c-1.5-2.7-2.3-5.9-2.3-9
			c0-6.8,3.4-12.2,10.1-16.1c6.7-3.9,16.9-6.4,30.5-7.3v-6.6c0-4.3-0.5-7.7-1.5-10c-1.2-4-5.1-6.7-9.3-6.4c-1.9,0-3.8,0.3-5.5,1.1
			c-1.8,1-3.2,2.4-4.2,4.2c-1.5,2.7-2.4,5.6-2.8,8.6h-13.2v-12.7c4.3-1.9,7.8-3.4,10.7-4.4c2.8-1,5.6-1.8,8.4-2.5
			c2.4-0.6,4.9-1.1,7.4-1.4c2.2-0.3,4.4-0.4,6.5-0.4c5.6,0,10.1,0.7,13.5,2.2c3.3,1.4,6,4,7.6,7.2c1.7,3.3,2.5,7.9,2.5,13.9V267
			c0,3.1,0.1,5.4,0.2,7.1c0.1,1.3,0.3,2.5,0.7,3.7c0.2,0.7,0.6,1.4,1.1,2c0.5,0.5,1.1,0.9,1.7,1.2c1.2,0.5,2.5,0.9,3.8,1.1v4.6
			h-25.9L386.9,277.5z M384.6,253.7c-7.2,0.2-12.5,1.5-16,4c-3.5,2.5-5.2,6.2-5.2,11c0,2.9,0.8,5.1,2.4,6.6c1.8,1.6,4.1,2.4,6.5,2.3
			c2.1,0,4.2-0.6,6.1-1.7c1.9-1.1,3.4-2.7,4.5-4.6c1.1-1.8,1.7-3.9,1.7-6.1L384.6,253.7z M469.7,278.3c-3.3,3-7.1,5.5-11.1,7.3
			c-3.3,1.4-6.9,2.2-10.5,2.2c-6.9,0-12.1-1.9-15.5-5.6s-5.1-9.4-5.1-17v-38.9h-8.7v-4.8c2.2-0.2,4.4-1,6.3-2.1
			c1.4-0.9,2.4-2.2,3.1-3.7c0.9-1.9,1.5-4,1.8-6.1c0.5-3.1,0.8-6.3,1-9.4h16.6v17.4h19.8v8.7h-19.9v31.4c-0.1,3.9,0.1,7.8,0.7,11.6
			c0.3,2,1.1,4,2.5,5.5c1.1,1.2,2.7,1.8,4.3,1.8c1.2,0,2.3-0.1,3.5-0.4c1.1-0.3,2.2-0.7,3.2-1.2c1.3-0.7,2.5-1.6,3.6-2.6
			L469.7,278.3z M535.2,274c-4.7,5-9.4,8.6-14.1,10.6c-5,2.2-10.5,3.2-16,3.1c-10.8,0-18.9-3-24.4-8.9c-5.5-5.9-8.2-14.7-8.2-26.4
			c0-7.5,1.4-14,4.2-19.5c2.6-5.3,6.8-9.6,11.9-12.4c5.5-2.9,11.7-4.4,18-4.2c3.8-0.1,7.5,0.4,11.1,1.5c2.9,0.9,5.7,2.2,8.2,4.1
			c2.3,1.7,4.2,3.9,5.6,6.3c1.8,3.1,3.2,6.5,4,10c1,4.6,1.5,9.3,1.5,14h-44.2c0,8.4,1.5,14.6,4.5,18.5s7.4,6,13.5,6
			c3.3,0,6.5-0.6,9.5-2c3.4-1.8,6.6-4.1,9.2-7L535.2,274z M516.4,244.8c-0.2-7.1-1.1-12.4-2.8-15.9c-1.3-3.3-4.6-5.3-8.1-5.2
			c-3.6,0-6.4,1.8-8.5,5.4s-3.4,8.8-3.8,15.7L516.4,244.8z M573.9,227.6l0.9,0.2c2.9-3.6,6.4-6.5,10.5-8.6c3.6-1.8,7.6-2.7,11.6-2.6
			c3,0,6,0.3,8.9,0.9v19.2h-12.6c-0.6-2.3-1.6-4.4-3.1-6.2c-1.3-1.4-3.2-2.2-5.1-2.2c-1.2,0-2.3,0.4-3.4,0.9
			c-1.3,0.7-2.4,1.6-3.4,2.6c-1,1-1.7,2.2-2.2,3.5c-0.4,1.2-0.7,2.4-0.9,3.6c-0.2,1.8-0.2,3.6-0.2,5.4v22.2
			c-0.1,3.1,0.1,6.2,0.5,9.3c0.2,1.6,0.9,3,2,4.1c1.4,1.2,3.1,1.9,4.9,2.1v4.6h-34.4v-4.6c1.7-0.3,3.3-1.2,4.6-2.4
			c0.9-1.2,1.5-2.5,1.7-4c0.4-3,0.5-6.1,0.5-9.1V238c0-3.4-0.1-6-0.2-7.6c0-1.4-0.3-2.7-0.8-4c-0.4-1-1.1-1.8-2-2.4
			c-1.5-0.8-3-1.4-4.7-1.6v-4.7l19.1-0.6h8.8L573.9,227.6z"/>
		<circle class="st5" cx="175.8" cy="12.5" r="12.5"/>
		<path class="st0" d="M11.4,142c0.5,0.1,1,0.2,1.4,0.2c3.1,0.3,6.2-1,8.2-3.4c0.2-0.2,0.2-0.4,0.2-0.6c0-3,0-6,0-9v-0.4
			c-0.1,0-0.3,0-0.4,0c-0.6,0-1.2,0-1.8,0c-0.8,0-1.4-0.4-1.9-1c-0.6-0.9-1-2-1-3.1h16c-0.1-0.9-0.3-1.8-0.6-2.7
			c-0.4-1.1-1-2.1-1.9-2.9c-1.4-1.3-3.4-1.3-4.9-0.2c-0.6,0.4-0.9,1.2-0.5,1.8c0.4,0.9,0.2,2.1-0.7,2.7c-0.5,0.3-1,0.6-1.6,0.9
			c-0.1,0-0.3,0-0.4-0.1c-1.6-1.5-2.1-3.9-1.2-5.9c1-2.2,3.1-3.8,5.5-4.1c3.2-0.6,5.8,0.7,7.7,3.2c1.4,1.8,2.2,4,2.5,6.2
			c0,0.4,0.1,0.7,0.1,1.1h0.6c0.5,0,1,0,1.5,0c0.8,0.1,1.5,0.5,2,1.1c0.6,0.9,0.9,1.9,0.9,2.9h-4.9v26.3c-1.4,0-2.7-0.5-3.5-1.5
			c-0.4-0.5-0.6-1.2-0.5-1.8v-22.9h-6.9V155c-0.7,0-1.4-0.1-2.1-0.4c-1.3-0.4-2.1-1.7-2-3v-7.5L7,156.6c-1.5-1.1-1.8-3.2-0.7-4.7
			c0.2-0.2,0.4-0.4,0.6-0.6l5.5-4.7c0.1-0.1,0.2-0.2,0.3-0.3l-1.3-0.2c-1-0.2-2-0.4-3-0.8c-0.2-0.1-0.4-0.1-0.5,0.1
			c-2.1,1.8-4.3,3.5-6.6,5.1L1,150.6c-0.5-0.6-0.8-1.3-0.9-2.1c-0.2-1.2,0.2-2.4,1.2-3.1c1-0.7,1.9-1.5,2.9-2.2l0.3-0.2
			c-0.2-0.2-0.4-0.5-0.6-0.7c-2.5-2.5-3.9-6-3.8-9.5c0.1-4.5,3.8-8.1,8.3-8.1c4,0.1,7.4,3.1,8,7.1c0.2,1.8-0.2,3.7-1.1,5.2
			c-0.9,1.7-2.1,3.2-3.4,4.6L11.4,142z M7.6,140.1c0.6-0.7,1.3-1.3,1.9-2c1.1-1.1,1.9-2.4,2.6-3.7c0.3-0.7,0.4-1.6,0.3-2.3
			c-0.5-2.2-2.6-3.7-4.9-3.2c-1.8,0.4-3.1,1.8-3.3,3.7c-0.1,1.3,0.1,2.6,0.6,3.8C5.3,137.8,6.3,139.1,7.6,140.1L7.6,140.1z"/>
	</g>
</g>
</svg>
