<?xml version="1.0" encoding="utf-8"?>
<!-- Generator: Adobe Illustrator 25.0.1, SVG Export Plug-In . SVG Version: 6.00 Build 0)  -->
<svg version="1.1" id="Layer_1" xmlns="http://www.w3.org/2000/svg" xmlns:xlink="http://www.w3.org/1999/xlink" x="0px" y="0px"
	 viewBox="0 0 2500 2500" style="enable-background:new 0 0 2500 2500;" xml:space="preserve">
<style type="text/css">
	.st0{fill-rule:evenodd;clip-rule:evenodd;fill:#FFFFFF;}
	.st1{fill-rule:evenodd;clip-rule:evenodd;fill:#C0C0C2;}
</style>
<g>
	<path class="st0" d="M0,0h2500v2500H0V0z"/>
	<path class="st1" d="M657.4,1527.4c21.3,0,42.1,9.6,55.4,27.5c13.8,19,16.8,38.8,16.8,62.3c1.9,31.1-18.4,92.8-74.6,92.8
		c-39.7,0-72.7-30-72.7-87.5C582.3,1565.1,610.5,1527.4,657.4,1527.4l-2.7-9.3c-55.1,0-98.5,39.1-98.5,101
		c0,60.6,39.2,100.2,98,100.2c59.4,0,101.5-41.3,101.5-104.4c0-67.9-50.9-96.8-100.9-96.8L657.4,1527.4L657.4,1527.4z
		 M1157.1,1527.4c21.3,0,42.1,9.6,55.4,27.5c13.9,19,16.8,38.8,16.8,62.3c1.9,31.1-18.4,92.8-74.6,92.8c-39.7,0-72.7-30-72.7-87.5
		C1082,1565.1,1110.2,1527.4,1157.1,1527.4l-2.7-9.3c-55.1,0-98.5,39.1-98.5,101c0,60.6,39.2,100.2,98,100.2
		c59.4,0,101.5-41.3,101.5-104.4c0-67.9-50.9-96.8-100.9-96.8L1157.1,1527.4L1157.1,1527.4z"/>
	<path class="st1" d="M552.5,1703.2c-17.8,11.9-41,16.1-62.6,16.1c-62.3,0-99.6-39.3-99.6-101.3c0-63.7,47-99.9,106.7-99.9
		c20.7,0,41.9,4.8,60.9,13c-2.8,7.1-4.5,14.4-5.9,21.8l-2,0.3c-4-5.1-24.9-24.3-54.1-24.3c-52.1,0-77.8,42.2-77.8,90.3
		c0,54.3,31.1,89.2,75.9,89.2c30.6,0,54.3-18.1,60-22.9L552.5,1703.2L552.5,1703.2z M800.3,1532.8c11.9-0.6,31.1-1.4,41.6,0.3
		c21.2,3.4,31.1,16.1,31.1,35.7c0,22.1-15.6,36.2-36.2,40.5c-14.4,2.8-32.6,1.7-36.5,1.4v10.7h10.8l22.6,26.6l33.4,43.3
		c5.9,7.9,11.6,15.9,17.8,24.6c5.1-0.3,10.8-0.8,16.1-0.8c5.4,0,10.5,0.6,16.4,0.8l-5.4-7.1l-13.6-15.9l-58.3-73.9
		c28.6-5.1,58-20.9,58-53.8c0-28.6-19.2-43-62.8-43h-60V1716c4-0.3,8.2-0.8,12.5-0.8c4,0,7.9,0.6,12.5,0.8L800.3,1532.8
		L800.3,1532.8L800.3,1532.8z M949.8,1533.4c8.5-0.6,28.6-0.9,40.8,0.3c22.4,2,32,17.3,32,36.5c0,25.2-16.4,43-44.7,45.8
		c-9.6,0.8-20.9,0.8-28,0v11.1c7.1,0,25.5,2,38.2-0.6c39.9-7.9,60.6-23.5,60.6-57.7c0-34.2-18.1-46.4-73-46.4h-50.7V1716
		c4-0.3,8.2-0.8,12.5-0.8c4,0,7.9,0.6,12.5,0.8L949.8,1533.4L949.8,1533.4L949.8,1533.4z M1381.8,1716c-5.8-8.3-11.8-16.5-17.8-24.6
		l-33.4-43.3l-22.6-26.6h-10.8v-10.7c4,0.3,22.1,1.4,36.5-1.4c20.7-4.3,36.3-18.4,36.3-40.5c0-19.5-9.9-32.3-31.2-35.7
		c-10.5-1.7-29.7-0.9-41.6-0.3V1716c-4.5-0.3-8.5-0.8-12.5-0.8c-4.2,0-8.5,0.6-12.4,0.8v-193.6h60c43.6,0,62.8,14.4,62.8,43
		c0,32.8-29.4,48.7-58,53.8l58.1,73.6l77.9-174.6h6.5l84.9,197.8c-5.4-0.3-9.9-0.8-14.7-0.8c-5.4,0-10.2,0.6-15,0.8
		c-8.2-23.5-18.4-50.7-29.7-76.4h-71.9l5.4-11.9h62.3l-31.4-72.5l-30.9,72.5l-5.4,11.9c-9.9,24.9-20.1,49.8-28,76.4L1381.8,1716
		L1381.8,1716z M1681.5,1522.4c4,0.3,8.2,0.9,12.5,0.9c4,0,7.9-0.6,12.4-0.9V1716c-4.5-0.3-8.5-0.8-12.4-0.8
		c-4.3,0-8.5,0.6-12.5,0.8V1522.4L1681.5,1522.4z M1826.1,1527.4c21.3,0,42.1,9.6,55.4,27.5c13.9,19,16.8,38.8,16.8,62.3
		c1.9,31.1-18.4,92.8-74.6,92.8c-39.7,0-72.7-30-72.7-87.5C1751,1565.1,1779.2,1527.4,1826.1,1527.4l-2.7-9.3
		c-55.1,0-98.5,39.1-98.5,101c0,60.6,39.2,100.2,98,100.2c59.4,0,101.5-41.3,101.5-104.4c0-67.9-50.9-96.8-100.9-96.8L1826.1,1527.4
		L1826.1,1527.4z M2106.6,1716h-8.5c-3.1-4-8.8-10.7-14.7-17.2l-122.3-135.3h-2.8V1716c-2.8-0.3-5.4-0.8-7.9-0.8
		c-2.8,0-5.4,0.6-7.9,0.8v-193.6h11.1l134.4,145.8h2.8v-145.8c2.6,0.3,5.1,0.9,7.9,0.9c2.6,0,5.1-0.6,7.9-0.9V1716L2106.6,1716z
		 M1615,1716.5c-4.5-0.3-8.5-0.9-12.5-0.9c-4.3,0-8.5,0.6-12.5,0.9v-180.6c-28.6,0-45.8,1.7-62,3.4c0.3-2.8,0.9-5.7,0.9-8.5
		c0-2.8-0.6-5.4-0.9-8.5h146.1c-0.3,3.1-0.8,5.7-0.8,8.5c0,2.8,0.6,5.7,0.8,8.5c-19.6-2.3-39.4-3.5-59.2-3.4V1716.5z M36.8,1430.5
		V993h184.8c70.1,0,135.9,48.9,135.9,125.3c0,95.6-99.8,155-201.8,106.2c42.5-6.4,99.8-46.7,97.7-101.9c-2.1-55.2-27.6-85-74.3-85
		H143v392.9L36.8,1430.5L36.8,1430.5L36.8,1430.5z M1559.5,1247.9l-42.5-142.3l-51,142.3l-21.2,55.2l-44.6,127.4h-182.6v-291
		l-133.8,291h-46.7l-274-649.9h116.8l206,486.4l129.6-274h108.3v420.5L1485.2,993h82.8l167.8,414.2V993h197.5
		c72.2,0,116.8,36.1,118.9,108.3c2.1,72.2-53.1,106.2-78.6,114.7l121.1,194.1V993h106.2v183.7L2362.4,993h81.8l-143.4,176.3
		l162.5,261.2h-118.9L2200.9,1199v231.5h-223L1842,1184.2h44.6c44.6,0,63.7-51,63.7-78.6c0-27.6-8.5-68-65.8-68H1842v392.9h-225.1
		l-38.2-127.4h-133.8l21.2-55.2L1559.5,1247.9L1559.5,1247.9z M852.3,1430.5V993H746.1v427.3L618.7,1216
		c25.5-8.5,80.7-42.5,78.6-114.7c-2.1-72.2-46.7-108.3-118.9-108.3H380.8v437.5H487v-392.9h42.5c57.3,0,65.8,40.3,65.8,68
		c0,27.6-19.1,78.6-63.7,78.6H487l135.9,246.4H852.3z"/>
</g>
</svg>
