<?xml version="1.0" encoding="utf-8"?>
<!-- Generator: Adobe Illustrator 25.0.1, SVG Export Plug-In . SVG Version: 6.00 Build 0)  -->
<svg version="1.1" id="Layer_1" xmlns="http://www.w3.org/2000/svg" xmlns:xlink="http://www.w3.org/1999/xlink" x="0px" y="0px"
	 viewBox="0 0 2500 2500" style="enable-background:new 0 0 2500 2500;" xml:space="preserve">
<style type="text/css">
	.st0{fill-rule:evenodd;clip-rule:evenodd;fill:#FFFFFF;}
	.st1{fill-rule:evenodd;clip-rule:evenodd;fill:#C0C0C2;}
</style>
<g>
	<path class="st0" d="M0,0h2500v2500H0V0z"/>
	<path class="st1" d="M1660.6,1253.8v116c-9.2,13.4-34.6,24-59.5,24c-66.9,0-99.3-66.2-99.3-142.4c0-89.6,35-145.2,104.2-145.2
		c37.6,0,61.3,27.3,81.8,56.6l15.8-12.5c-24.5-38.4-64.8-64.2-109.4-64.2c-83.1,0-149.7,68.5-149.7,167.8
		c0,86.7,64.3,160.1,144.4,160.1c46.8,0,90.2-17.3,125.2-47.9v-112.1L1660.6,1253.8L1660.6,1253.8L1660.6,1253.8z M2385.1,1300.9
		H2363v-88.1h22.1c17.8,0.8,28.1,8.4,33.5,18.5c3.3,6.9,4.9,15.6,5.2,25.6c-0.2,10-1.9,18.6-5.2,25.6
		C2413.2,1292.5,2402.9,1300.1,2385.1,1300.9L2385.1,1300.9z M2363,1316.3v88.1h-39.4v-207.1h39.4l43.3,0.1
		c31.5,0,56.9,21.1,56.9,55.6c0,1.3,0,2.6-0.1,3.9c0.1,1.3,0.1,2.6,0.1,3.9c0,34.5-25.4,55.6-56.9,55.6H2363z M90.2,1405.3v-149.5
		h116.4v149.5H260v-310.6h-53.4v136.6H90.2v-136.6H36.8v310.6L90.2,1405.3L90.2,1405.3z M371.9,1241.8c-3.1-12-2.6-19.6-8.8-19.6
		s-7,8.1-9.6,20.1l-20.6,80.1h60.4L371.9,1241.8z M311.9,1405.3l15.8-62.8h70.9l16.6,62.8h41.6l-45.1-166.8
		c-7-24.9-11.4-45.5-37.6-45.5c-22.3,0-30.6,14.9-36.3,36l-44.2,176.4L311.9,1405.3L311.9,1405.3L311.9,1405.3z M637.4,1238.5
		c-17.5-25.9-35.4-45.5-72.6-45.5c-57.3,0-95,50.8-95,108.3c0,64.7,39.8,109.3,92.8,109.3c42.5,0,64.3-24.9,77.9-52.2l-14-6.7
		c-12.3,20.1-26.3,43.6-54.3,43.6c-47.7,0-56.5-55.6-56.5-96.8c0-41.7,13.1-90.1,54.3-90.1c23.6,0,40.3,15.4,51.2,38.8L637.4,1238.5
		L637.4,1238.5z M713.9,1405.3v-95.9h0.9l70,95.9H836l-84-117.9l64.3-89.2h-25.8l-75.7,106.4h-0.9V1198h-39.4v207.3H713.9
		L713.9,1405.3z M869.7,1405.3v-165.9c0-11.5,0-12.5,2.2-12.5c3.5,0,4.4,4.3,6.6,12.9l40.3,147.6c2.6,10.1,4.4,19.2,13.1,19.2
		c8.3,0,10.5-2.4,14.9-20.1l31.5-122.2c6.1-25.4,9.2-38.3,13.1-38.3c3.9,0,6.1,0.9,6.1,9.1v170.2h37.2v-172.1
		c0-24.5-11.8-40.3-35-40.3c-15.3,0-24.9,5.8-29.3,23.5l-28,106.9H941l-26.7-91.1c-6.1-22.1-9.6-39.3-34.6-39.3
		c-23.6,0-30.2,15.3-30.2,39.8v172.5L869.7,1405.3L869.7,1405.3z M1102.4,1322.4l20.6-80.1c2.6-12,3.5-20.1,9.6-20.1
		c6.1,0,5.7,7.7,8.8,19.6l21.4,80.5H1102.4z M1081.4,1405.3l15.7-62.8h70.9l16.6,62.8h41.6l-45.1-166.8c-7-24.9-11.4-45.5-37.6-45.5
		c-22.3,0-30.6,14.9-36.3,36l-44.2,176.4L1081.4,1405.3L1081.4,1405.3L1081.4,1405.3z M1273.8,1405.3v-164.4c0-4.3,0.9-6.2,3.1-6.2
		c4.8,0,12.7,18.2,79.2,128.9l15.3,24.9c7.4,12.5,11,22,22.8,22c11.8,0,12.2-7.7,12.2-21.1v-191.3H1388v126.5c0,4.3-1.3,4.8-3.1,4.8
		c-2.6,0-31.1-50.3-70-112.1c-7.9-12-15.8-19.2-30.2-19.2c-17.1,0-29.3,9.1-29.3,31.2v175.9L1273.8,1405.3L1273.8,1405.3
		L1273.8,1405.3z M1797,1405.3v-191.7h18.8c32.8,0,42,21.6,42,41.7c0,28.3-10.5,46.5-38.5,46.5h-4.4l47.2,103.5h45.5l-51.2-100.7
		c26.3-9.1,40.7-18.7,40.7-50.8c0-34.5-25.4-55.6-56.9-55.6h-82.7v207.1L1797,1405.3L1797,1405.3L1797,1405.3z M2014.9,1208.3
		c26.2,0,52.5,34,52.5,93.5c0,59.4-26.2,93.4-52.5,93.4c-26.3,0-52.5-34-52.5-93.4C1962.4,1242.3,1988.6,1208.3,2014.9,1208.3z
		 M2014.9,1193c-62.2,0-98.5,47-98.5,108.8c0,58,46.8,108.8,98.5,108.8c62.1,0,98.5-47,98.5-108.8
		C2113.4,1243.8,2066.5,1193,2014.9,1193z M2144.8,1198.2v142.3c0,62.3,46.4,70,71.8,70c35,0,65.6-22,65.6-68.1v-144.3h-18.4v132.3
		c0,36.9-15.8,57-41.1,57c-16.2,0-38.5-8.6-38.5-41.7v-147.6H2144.8L2144.8,1198.2z"/>
</g>
</svg>
