<?xml version="1.0" encoding="utf-8"?>
<!-- Generator: Adobe Illustrator 25.0.1, SVG Export Plug-In . SVG Version: 6.00 Build 0)  -->
<svg version="1.1" id="Layer_1" xmlns="http://www.w3.org/2000/svg" xmlns:xlink="http://www.w3.org/1999/xlink" x="0px" y="0px"
	 viewBox="0 0 2500 590" style="enable-background:new 0 0 2500 590;" xml:space="preserve">
<style type="text/css">
	.st0{fill:#C0C0C2;}
	.st1{fill:#FFFFFF;}
</style>
<path class="st0" d="M2351.3,263H2500V316h-215v-215h66.3V263z M589.2,228.5h164.5V186H589.2v-37.2h164.5v-47.8H522.8v215h66.3
	V228.5z M1027.1,268.3H851.9v-39.8h164.5V186H851.9v-37.2h175.2v-47.8H785.5v215h241.5L1027.1,268.3z M1353.5,260.3
	c2.5-15.8,2.5-33.3,2.7-50.4v-13.3c-0.2-77-21.9-96.1-98.2-95.5h-191.1v215h215C1319,316.8,1346.9,298.6,1353.5,260.3L1353.5,260.3z
	"/>
<path class="st1" d="M1242,263h-108.8V154.1h111.5c44.2-0.4,44.8,16.4,45.1,53.1v2.7C1289.5,247.4,1286.6,264,1242,263L1242,263z"/>
<path class="st0" d="M1624.2,268.3H1449v-39.8h161.9V186H1449v-37.2h175.2v-47.8h-241.5v215h241.5V268.3z M1926.8,316v-39.8
	c0.7-30.7-15.8-38.9-42.5-42.5c12.7-4.6,28.2-7.4,37.2-21.2c7.6-12.1,8.6-28.7,8-42.5c0.7-53.3-20.7-69.5-71.7-69h-201.7v215h66.3
	v-55.7h108.8c28.5,1,29.5,12.1,29.2,34.5V316H1926.8z"/>
<path class="st1" d="M1831.2,209.9h-108.8v-55.7h108.8c6.7-1.1,13.5-0.8,18.6,0c13.1,4.4,13.4,13.1,13.3,23.9
	C1863.6,202.7,1860.9,208.8,1831.2,209.9L1831.2,209.9z"/>
<path class="st0" d="M2152.3,101.1h-87.6l-122.1,215h74.4l21.2-37.2h140.7l18.6,37.2h74.3L2152.3,101.1z"/>
<path class="st1" d="M2062.1,233.8l45.1-87.6l45.1,87.6H2062.1z"/>
<path class="st0" d="M711.2,507.1l-79.6-143.3H528.1v217.6h61V416.9l95.5,164.5h53.1l92.9-164.5v164.5h63.7V363.8H790.9L711.2,507.1
	z M1122.6,361.1h-50.4l-47.8,2.7c-87,0.3-97,20.4-98.2,106.2c1.1,12.4,1.1,25.7,2.7,39.8c1.4,51.5,29.9,67.7,77,71.7
	c15.6,0.6,30.5,1.2,45.1,0c7.1,1.2,14.2,1.2,21.2,0h50.4c96.2-3.3,101.1-31.2,100.8-114.1v-10.6
	C1223.7,379.9,1198.8,362.1,1122.6,361.1L1122.6,361.1z"/>
<path class="st1" d="M1157.1,493.8c-2.1,34-22.2,35.3-53.1,34.5c-11.5,1-23,1-34.5,0c-11.5,1.1-23,1.1-34.5,0
	c-38.9-0.5-41.2-14.5-42.5-50.4v-8c1.2-8.9,1.2-17.4,2.7-26.5c3.5-29.1,25.9-27.5,47.8-29.2c21.9,0.8,43.9,0.8,66.3,0
	c12.3,0.8,30.4,1.4,37.2,8c10.1,8.7,10.8,28.8,10.6,42.5C1157.3,474,1156.9,483.8,1157.1,493.8L1157.1,493.8z"/>
<path class="st0" d="M1390.6,459.3v39.8h82.3c0.1,1.7,0.1,4,0,5.3c0.1,22.7-16.1,26.9-34.5,26.5c-20.5,0.4-40.3,0-61,0h-23.9
	c-28-4.8-31.6-21.7-31.8-47.8V462c0.3-28.9,2.2-48.3,37.2-47.8c24.1-0.6,49.7-0.2,74.3,0c10.1-0.2,19.8-0.2,29.2,2.7
	c8.8,3.6,9.7,12.7,10.6,21.2h63.7v-2.7c0.6-60-27.9-71-79.6-71.7c-15.7-1.3-30.7-2-45.1-2.7c-6.2,0.7-12.4,0.7-18.6,0l-47.8,2.7
	c-84.3,0.6-90.1,35.9-90.2,111.5c0.1,8.8,0.4,17.8,0,26.5c3.7,74,44.2,80.1,106.2,79.6h74.3c11.6,1.2,23.3,1.2,34.5,0
	c56.9,0.9,67.6-29.9,66.3-76.9c1.1-15,1.1-30.1,0-45.2L1390.6,459.3L1390.6,459.3z M1783.4,477.9v8c-1.1,33.2-5.3,43.6-42.5,42.5
	l-26.5,2.7l-29.2-2.7c-44.3,0.1-46.5-10.3-47.8-50.4V363.8h-66.3v132.7c0.5,83.6,47.8,86.1,116.8,84.9c17.6,1.2,35.8,1.5,53.1,2.7
	c64.4-1.1,108.5-10.9,108.8-84.9V363.8h-66.3V477.9z M1945.3,363.8h-66.3v217.6h215v-55.7h-148.6V363.8z M204.3,0.2
	C91.4,0-0.7,92.1,0,204.6c-1.1,113.3,89.9,205.9,203.2,207c0.4,0,0.8,0,1.2,0c114.2-0.2,206.8-92.8,207-207
	C410.7,92.1,318.6,0,204.3,0.2z"/>
<path class="st1" d="M204.3,313.4C144.8,314.7,96,265.9,95.5,204.6C96,145.5,144.8,96.6,204.3,95.8c60.9,0.9,109.7,49.7,108.8,108.8
	c1.4,58.7-45,107.4-103.6,108.8C207.8,313.4,206.1,313.4,204.3,313.4z"/>
<path class="st0" d="M286.6,194c-4.6-40.1-39.5-71.4-82.3-71.7c-41.3,0.5-76.1,30.9-82.3,71.7H286.6L286.6,194z M286.6,217.8
	c-4.6,39.6-39.5,71-82.3,71.7c-41.1-0.9-75.8-31-82.3-71.7H286.6L286.6,217.8z M2162.3,589.8c23.1,0,41.8-18.8,41.8-41.9
	c0-23.1-18.8-41.8-41.9-41.8s-41.8,18.8-41.8,41.9C2120.4,571.1,2139.2,589.8,2162.3,589.8z M2162.3,584.3
	c-20.4,0-35.4-15.9-35.4-36.4c0-20.3,15-36.3,35.4-36.3c20.3,0,35.2,15.9,35.2,36.3C2197.5,568.4,2182.7,584.3,2162.3,584.3z
	 M2169.1,549.7c8.3-0.2,14.7-3.6,14.7-12.8c0-7.7-4.2-12.4-16.6-12.4h-20.4v46.8h5.8v-21.5h10.5l13.4,21.5h6.9L2169.1,549.7
	L2169.1,549.7z M2152.5,545.1v-16.6h13.4c5.8,0,11.7,0.9,11.7,8.2c0,9.5-9.7,8.4-16.4,8.4H2152.5z"/>
</svg>
