<?xml version="1.0" encoding="utf-8"?>
<!-- Generator: Adobe Illustrator 25.0.1, SVG Export Plug-In . SVG Version: 6.00 Build 0)  -->
<svg version="1.1" id="Layer_1" xmlns="http://www.w3.org/2000/svg" xmlns:xlink="http://www.w3.org/1999/xlink" x="0px" y="0px"
	 viewBox="0 0 2500 2500" style="enable-background:new 0 0 2500 2500;" xml:space="preserve">
<style type="text/css">
	.st0{fill-rule:evenodd;clip-rule:evenodd;fill:#FFFFFF;}
	.st1{fill-rule:evenodd;clip-rule:evenodd;fill:#C0C0C2;}
</style>
<g>
	<path class="st0" d="M0,0h2500v2500H0V0z"/>
	<path class="st1" d="M791.5,754.9l-0.8,22.5c1.8,2-0.8,6.2,2.2,7.3l1.4-30.4c59.5-0.2,116.8,11.7,169.3,28.9h0.8
		c-51.9-20.5-111.6-32.2-170.1-32l-1.4-39h-2.2v39l-43.4,2.2l-2.2,2.2C760.6,755.4,775.3,752.8,791.5,754.9L791.5,754.9z"/>
	<path class="st1" d="M2124.1,1056.1l-1.4-1.4l0.8-27c0-1.6-0.2-4.8-2.2-5.6l-1.4,34h-33.4c-30-25.9-61.1-47.9-94.1-66l-0.8-45.7
		h-1.4c-1.6,14.5,0.2,30-1.4,44.2c-26.1-15.5-53.9-27-81.9-38.4c-0.6-7.2,1.8-16.5-2.2-21.7v19.5l-1.4,1.6
		c-43.2-16.9-88.9-28.5-135.4-37.8c-1-1.6-1-6.6-2.8-5l-1.6,3.6c-39.4-5.8-78.6-11.7-119.4-14.5l0.8-0.6l119.4,0.6v0.8
		c0.8,0.8,0.2,3,2.2,2.2c0.8-1.2,0.2-2.8,1.4-3.6l27.6-0.8c-8.7-2.8-19.3-0.4-28.4-2.2v-2.8c-0.6,0-1.8,0.2-2-0.8l-1.6,4.4H1501
		l-1.6,1.4l34.2,1.4c-55.9,3.4-112,12.3-164.5,23.1l0.8-15.9l-2.2-3.6l-1.4,21.1l-47.9,13.7c-4-6.2,2.4-13.1-2.8-19.5l-1.4,20.3
		c-19.7,7-40.6,13.9-59.3,20.9l-0.8-42h-1.4c-1.6,13.5,0.8,28.5,0,43.4c-14.1,4.8-27.1,14.1-41.2,16.7c-18.9-27.3-40.6-54.1-66-78.2
		c9.1-1.6,19.1,0.2,28.2-1.4c-9.2-2.6-20.7-0.8-31-1.4c-25.1-22.9-50.7-44.6-78.2-61.5v1.4c26.3,17.9,51.2,37.7,74.6,59.3
		c-8,1.6-17.5-0.2-25.3,1.4c8.4,2.8,18.7,1,28.1,1.6c24.9,24.5,48.7,50.9,67.4,78.8v2.8c-22.7,12.5-45.8,24.1-67.4,39.2
		c-39.2-48.7-90.9-86.9-143.4-113c-0.6-3,1-5.2,1.4-7.8c14.3-0.2,29,0.4,42.8-0.8c-13.5-2.8-28.9-0.4-42.8-2.2
		c-0.4-5.2-4.8-9-10-9.5c-5.6-1.8-4.6-9.5-3.6-12.9c-57.1-31-127.9-20.1-192.6-15.3l-0.6-49.3h-1.4c-0.6,17.7,1.2,33-1.6,50.7
		l-31,3.6c-76.6-15.1-155.8,2.2-221.6,32.6h-76.8c45-34,93.5-59.1,141.1-86.1c17.9-8.4,40.4-6.4,57.9-15.9c9-4,11.9-14.1,12.5-21.7
		c19.1-5,39.8-7.8,58.5-11.7c-1.4-0.6-2.4-2-4.2-1.4C615,769.3,513.9,812.2,429.6,893.2l-129.7,0.6c-0.2,0.8,0.4,1.2,0.8,1.6
		l125.9,0.6c-50.1,48.7-87.9,104-121.7,160.1l-91.9,0.6v0.8c31.4,1.6,59.3-0.2,89.9,1.4c-11.7,20.5-21.7,41.4-32.6,62.3
		c-0.4,17.1-16.5,28.8-13.9,46.3c2.8,6.6,9.5,9.7,15.9,10.3c14.3-22.7,24.5-47,35.6-71l0.6,0.6c-10.8,34.4-17.5,69.9-20.1,105.8
		c0.2-0.4,0.6-0.8,1.4-0.8c3.4-25.7,7-53.3,13.7-78.8c5.8-18.3,7.6-38.4,21.1-53.5c3.2-1.8,7.4-2.6,10.9-2.2
		c5.4,19.1-3,48.1,19.5,59.3c7.6-20.7,16.7-41,31.8-58.7c10.1-10.1,21.7-20.9,36.2-19.5c3.8,10.7-0.8,22.1-1.4,32
		c4.4,2.4,9.9,1.8,13.7,5c5,46.3-17.1,83.2-34,121.6c-6.4,12.9-11.3,27.3-17.3,39.8l-95.5-0.8c-0.6-6,1.2-13.5-1.6-18.1
		c-2,7.6,0,12.3-2,18.9h-72.4v1.4l73.8,1.4c-0.6,30,3,61.7,7.8,91.3c1.6,1.4-0.2,4.8,3,5c-3.8-31-10.7-63.3-8-97.1l94.9,0.8
		c-1.6,8.4-5.6,15.9-5,25.3c12.7,28.8,8.4,64.7,9.2,98.5c-2.2,24.9,15.5,42.2,14.5,65.7h-54.3c-6.4-8.2-17.7-11.2-25.9-8.6
		c-6.8-20.1-14.5-40-19.5-60.7h-1.6v2c5.4,23.3,14.1,45.8,21.1,67.4l-109.4,0.8v1.4c37.4-0.8,74.8,1.2,110,0l2.2,1.4
		c27.8,67.8,73.2,131.3,131.1,183.2L441,1638c6,2.8,11.3,1,18.1,1.4c19.3,16.6,39.6,31.8,60.9,45.7c67,45.4,145.8,62.3,222.2,85.5
		c15.7-1.2,31.4,8.2,48.5,5.8l0.8,11.5h2v-13.7c4.6-2.4,3.6-7,6.6-10.1c123.5-1.6,231-45.2,323.5-123.9l59.3-0.8
		c-0.4-0.2-0.8-0.6-0.6-1.4l-54.3-1.4c7.8-8,17.7-14.5,23.7-23.9c-9.6,7.4-18.3,17.3-28.1,24.7c-32.4-0.2-66.2,0.4-96.9-0.8
		c46.7-26.3,92.1-66.8,126.7-111.4c15.1,10.6,32.2,18.1,47.1,28.1l-37,46.3l0.8,0.8c14.1-14.5,26.5-31.6,39.8-46.2l48.5,22.3v49.3
		h2.2l0.6-48.5c16.9,7.6,34.6,13.1,52.1,18.7c13.5-1,3.4,14.5,9.5,18.9c0.2-4.2-0.6-10.5,0.8-15.3l39.8,10.9
		c17.1-1.8,6.2,18.9,9.5,26.9c-16.4,0.4-32.9,0.2-49.2-0.8c-2-3,1-7.6-2.2-8l-1.4,8.8l-103.6,0.6l1.4,1.4l102.7,0.8v23.9l1.6,1.4
		c1.6-9.9-0.2-15.5,1.4-25.3h446.6v18.9c1.6,1.6-0.6,5.4,2.2,5.6l1.4-24.5l52.9-0.8l1.4-1.4l-55.1-1.4v-13.7
		c46.6-10.7,93.1-21.3,136.9-38.4v53.5c-20.5-1.2-39.2-0.4-60.1-0.6l-1.4,1.4c18.3,2.2,41.6-1,62.1,2.2c-0.6,10.5-0.2,18.1,0.8,27.4
		h0.8c1.6-9.1-0.2-19.7,1.4-29h165.1v-1.4l-45.7-0.6l-120.2-0.8l0.8-53.5c27.6-11.5,54.9-23.1,81-37.8l1.4,30.6h1.4l1.6-32.6
		c42-24.1,83-52.3,118.6-90.5h8.6l0.8,31h0.6c1.6-9.1-0.2-20.1,1.6-31l67.2-0.8h1.6l-2.2-1.4l-66-0.8c-3.2-1.8,1.2-5.4-2.8-6.4
		c-1.6,1.8,0.2,4.6-1.4,6.4l-127.5-0.6l-0.8-304l1.6-86.9l127.3,0.6c0.6,5.6-1.2,12.1,1.4,16.7l1.6-17.3h168.5l16.7-1.6
		L2124.1,1056.1L2124.1,1056.1z M1173.6,1123.4c9.9,17.7,9.9,36.4,0,54.3c4.2-9.1,6.8-18.9,6.6-29.8
		C1179.4,1139.1,1176.6,1131.3,1173.6,1123.4z M1170,1064.7l-0.6,50.7l-2.2-2.2c-1.2,2.8,3.4,4.8,2.8,8l-12.9-12.3
		c0.4,0.6,5,2,7.2,4.2l0.6-0.6c-12.9-13.5-32.6-15.5-49.9-10.9l-1.4,1.4c2.6,0.8,5.6-1.6,9.2-0.8c-15,2.7-28,12-35.4,25.3
		c0.6-2.8,4.4-5.2,2.8-7.8c-7.4,9.9-12.9,22.7-9.2,35.4c1.4,43,47.1,68.4,71.6,101.3c-19.1-1.8-35,2.2-54.3-4.4h-22.5
		c-13.1-12.3-23.5-27-31.8-41.8v-151.4h114.4C1162.5,1059.9,1166.2,1062.5,1170,1064.7L1170,1064.7z M1170,1180.5
		c-1,7.6-9.5,9.6-14.5,14.5c-7.4,3-14.9,6-23.7,5.8C1146.9,1200,1159.5,1192.8,1170,1180.5L1170,1180.5z M1099.8,1256.5h-19.5
		l2.8-0.8L1099.8,1256.5L1099.8,1256.5z M1099.8,1405.7c-19.3,4.2-38.8-1.2-51.3-16.1C1063.2,1400.7,1079.7,1407.5,1099.8,1405.7z
		 M1145.4,1055.3h-50.7C1110.3,1052,1130,1052,1145.4,1055.3z M712.5,906.9c24.3-11.3,50.3,3.4,78.2-1.4c1.2,11.5-2.8,19.9,0.8,30.4
		c2.4,1,1.6-2,2.8-2.8v-27.5c64.3-3.8,139.5-22.5,199.9,5l2.8-3.6c52.7,23.7,102.6,61.7,142,110c-15.7,12.9-33.4,23.5-48.6,38.4
		h-46.3c-0.6-8,1.2-17.3-1.4-24.5c-1.2-0.4-1.4,0.8-2.2,1.4l-0.8,23.1h-43.4c-0.4-8,1.4-17.3-1.4-24.5c-1-0.4-1.4,0.8-2.2,1.4v23.1
		H794.4v-54.9c-0.8-1.2-1.2-2.8-2.8-3c-3.8,17.9,1.2,39.4-1.6,57.9h-29.6c-0.6-8,1.2-17.3-1.4-24.5c-1.2-0.4-1.6,0.8-2.2,1.4v22.5
		l-147.8,0.6v-14.5c18.7-11.9,27-32.6,24.7-52.9l-1.4-1.4c-38.2,23.1-78.2,41.2-114.4,68.8h-36.2
		C525.5,960.7,626.1,933.4,712.5,906.9L712.5,906.9z M1034,1120.4l-0.8-0.6c-13.7,20.3-28.4,41.6-36.2,65.1l-0.8-126.1h43.4
		l0.8,144.2C1029.6,1179.1,1027.4,1147.1,1034,1120.4z M1040.5,1425.2v23.9h-44.2l0.8-101.3
		C1006.9,1375.4,1023,1400.5,1040.5,1425.2L1040.5,1425.2z M992,1318.1l-57.9,0.8l-1.4,1.4c-2.2,26.1-3.2,61.3-34.2,70.2
		c-11.9,2.6-23.9-0.4-31.8-8.6c-22.9-30.2-19.1-72.8-20.9-110.8h146.8L992,1318.1L992,1318.1z M992.6,1370.9v78.2h-61.5
		C963.7,1436.9,985.2,1402.3,992.6,1370.9z M794.4,1116.8v-57.9h60.7C828.1,1065.3,804.8,1092.2,794.4,1116.8L794.4,1116.8z
		 M845,1449.2h-50.7v-52.9C802.4,1418.2,823.5,1439.9,845,1449.2z M873.2,1122.6c14.5-3.8,33.2-1.2,41.4,13.7
		c12.5,24.1,13.9,54.3,13.7,81.9l-82.4-0.6C847.2,1182.7,841.4,1141.7,873.2,1122.6z M916,1058.9h76.6v104.4
		C984.4,1120.6,962.5,1072.4,916,1058.9z M730.6,1058.9c-22.9,5.8-42.2,28.5-52.1,49.3l-0.8-49.3H730.6z M604.7,1043.8v11.5h-18.9
		L604.7,1043.8z M468.6,1087.8l10.9-28.9h34.8c-17.7,13.3-32.8,31.4-43.4,49.3c-1.4,1.6-3.2-0.2-4.4-1.4
		C464.4,1099.3,473,1094.7,468.6,1087.8L468.6,1087.8z M492.5,962.6c7.4-9.9,17.3-13.3,28.2-15.1c-0.6,10.9-11.5,18.7-19.5,25.3
		C497.6,971,492.5,967.2,492.5,962.6z M346.4,1082c-5.4-4.8-8.2-11.5-5.8-18.7l1.4-4.4h28.1C364.7,1068.3,356.2,1077.8,346.4,1082
		L346.4,1082z M395.4,990.9c-7.2,21.3-10.6,44-22.3,63.7l-28.9,0.6c19.7-23.9,22.1-55.3,39.8-80.2c17.9-28.8,44.2-57.5,72.4-79h71.6
		C480.7,920.1,435,949.5,395.4,990.9L395.4,990.9z M419.4,1260.2c11.7-0.6,24.1,1.2,34.8-1.4l-2.8-3l-31.2,0.8
		c4.6-16.7,9.9-33.2,18.1-48.5c6.4-10.7,22.9-3.2,27.5-17.5c2.8-60.9,66.6-103.6,113.6-131.7h25.9l-0.6,197.7
		c-29.8,0.2-61.7-0.6-91.9,0.8c-1,2.2,1.8,2,2.8,2.8h89.1l0.6,189h-26.7c-25.7-28.8-45.8-59.7-70.2-89.1
		c-6.8,10.5-8.2,25.9-4.4,38.4c8,18.9,25.3,34,39.2,50.7h-86.9C424,1394.5,406.1,1328.3,419.4,1260.2L419.4,1260.2z M605.3,1477.3
		l-23.1-24.5l23.1,0.6C604.3,1461.3,604.3,1469.4,605.3,1477.3z M351.4,1452.8l52.9,0.6c20.1,90.1,117.6,143,191,181.8
		c7.2-0.6,13.9-2.4,20.3,1.4l-119.4-0.8c-49.5-40.8-86.5-91.3-126.1-139.6C362.4,1482.3,359.8,1466.3,351.4,1452.8L351.4,1452.8z
		 M408.5,1583.7c17.1,19.1,37,36.8,56.5,52.9h-4.4C441.9,1619.5,424.2,1602.8,408.5,1583.7L408.5,1583.7z M465,1640.2l6.4,1.4
		c56.9,46.4,120.5,76.4,186.2,101.3C587.2,1723.2,522.5,1690.5,465,1640.2L465,1640.2z M1022.4,1635.8c-32.2,1.4-67.2,0.6-100.5,0.8
		c-0.6,1.2-2.6,0.6-2.2,2.2l1.4,1.4h93.3c-20.7,10.9-42.6,19.5-64.3,28.2l2.8,2.2c23.9-7.6,46.8-18.3,68.8-30.4l97.7,0.8
		c-91.3,75.8-197.5,118-318.5,120c1.4-3-2.4-3.2-3.6-5h-2l-0.8-64.3l2.2-1.6c38.8,4.2,74.4-0.4,111.4-7.3c0.8-0.8,2.2-1.6,2.2-2.8
		l-3.6-1.4c-36,8-75.6,11.7-112.2,7.8c-0.6-11.5,1.2-23.9-1.4-34.6c-0.4-0.4-0.8-1-1.4-0.8l-1.6,1.4v34c-2.2,0.2-5.4-1.8-7.2,0.8
		c1.6,2.6,4.8,3.2,8,2.8l-0.8,63.7c-31-11.6-65.7-13.9-95.5-28.9c-4.2-5.8-6.6-13.3-1.4-19.5c0.2-0.8-0.4-1-0.8-1.4
		c-3.8,5.4-10.1,8-16.5,8.7c-11.9-1.6-21.7-7.8-32.6-11.7c-52.7-5.8-99.1-26.9-140.6-59.9h120.2l19.5,12.9l4.4-2
		c36.4,18.1,76.8,29.5,117.8,34.6l0.8-0.6c-5-5.8-14.9-3-21.7-5.8c-33.2-7-65.6-16.5-95.5-31.2l3.6-7.8l130.3-0.8
		c0.8-0.4,0.6-1.4,0.6-2.2l-2.8-1.4H654.6l7.2-13.1c-21.5-18.5-42.2-42.6-71-45.6c-52.1-22.3-75-84.1-123.7-112.8l-8.1-11.7h87.7
		c44,47.8,92.9,90.7,152.6,104.4c3.4-6.8-1-13.9-0.6-21.1c-32.2-13.1-62.5-31-89.9-55.7v-28.1c35.8-0.2,71,0.4,107.2-0.8
		c1-2.4-2-2-2.8-2.8h-34.8v-189c15.1-0.6,30.8,1.2,44.8-1.4l-2.8-2.2h-42c2.6-44-10.1-97.3,30.4-122.3c14.1-6.6,31-8.8,47.9-6.6
		c0.4,12.3-1.4,27.5,1.4,39.8l2.2-2.2v-106.4H790c-2.4,31.6,8.2,62.9-7.8,94.9c-7.4,32.4-9.6,69-9.5,102.7l-12.3-0.8V1190
		c-1-1-1-2.2-2.2-3l-1.4,3v66.6c-5.8,0.6-11.7-1.2-17.5,1.4c4.6,4,11.7,1.4,17.5,2.2v187.4l-0.8,0.8c-6.6,1.8-16.3-0.8-23.1,2.2
		c-1,3.4,3.2,1.2,4.4,2.8l19.5,0.8v28.9c0.6,0.6,1,1.8,2.2,1.4l1.4-1.4v-30.4l30.4,0.6c-2,18.9,0.6,36.8,0.8,56.5
		c2.2,1,1.8-2,2.8-2.8v-54.3c26.5,3,48.9-4,74.6,3.6c18.3,0.8,37.6,2,54.9-3.6l68.8,0.6v29.8c0.8,0.6,1.2,1.8,2.2,1.4l1.4-1.4v-30.4
		l44.2,0.6c-0.2,11.7-2.6,21.3,1.4,31.2c1.2,0.4,1.4-0.8,2.2-1.4v-29.8c26.3-10.6,40,26.7,61.5,38.4l44.2,31.8
		C1117.9,1571,1069,1608.4,1022.4,1635.8L1022.4,1635.8z M790.7,1388.2l-0.8,60.9h-29.6v-189h12.3
		C773.2,1303.2,775,1349.6,790.7,1388.2z M1121.5,1452.8h2.2l-0.8,0.6l7.2-0.6c-11.9,5.6-27.7,9.6-39.8,7.8
		c11.3-0.6,22.3-1.8,32-6.4L1121.5,1452.8L1121.5,1452.8z M1075.3,1452.8l44.8,0.6C1106,1457.6,1089.3,1455,1075.3,1452.8z
		 M1136,1449.2c6.6-1.8,12.1-6,17.5-10.3C1149.9,1442.3,1142.6,1448,1136,1449.2z M1169.4,1419.4c-9.2,13.5-23.1,22.3-36.2,29.8
		h-89.1v-59.5c14.1,17.9,36.4,25.7,58.7,18.9c14.5-3.8,26.3-16.9,34-29.8c11.1-29,0.4-61.7-18.9-84.7l-34-34
		c36.4-7.4,64.1,9,85.5,34.8V1419.4z M1169.4,1289.9c-11.7-13.1-25.1-24.3-40.6-29.8h27.5
		C1162.1,1269.8,1175.2,1278.5,1169.4,1289.9z M1173.6,1284.1c6.2,10.1,10.2,21.3,13.3,32.9c0.5,1.5,1,3,1.2,4.7
		c-0.4-1.6-0.8-3.1-1.2-4.7C1182.8,1305.9,1171.1,1297.9,1173.6,1284.1z M1174.4,1417.2c4.5-7,8.1-14.5,10.9-22.3l-0.8-0.8
		l-10.9,20.3v-113.6c10.5,15.3,16.1,32.8,17.5,52.1h0.6c1.4-2.2,0.6-5.2,0.8-8C1196.3,1370.3,1187.9,1396.3,1174.4,1417.2z
		 M1255.4,1102.3v-42l15.3,41.4L1255.4,1102.3z M1314.1,1101.7l-39.2,0.6l-15.9-43.4h55.1V1101.7z M1366.2,1449.2h-47.9l-0.6-189
		c7-0.6,14.9,1.2,20.9-1.4c0.6-1.2-0.6-2-1.4-3c-6.8,1-12.1,1.8-19.5-0.6l0.6-196.2h47.9V1449.2z M1370.6,1058.9h55.7v43.4h-56.5
		L1370.6,1058.9L1370.6,1058.9z M1369.8,1636.6v-21.7c46.1,10.5,94.7,17.7,142.6,21.7H1369.8z M1607.3,1449.2h-50.7l-0.8-170.9
		l-76-219.4h55.1l15.1,60.1l32,120.2l0.6,0.6l3-3.6c7.6-61.5,26.3-118.4,40.4-177.3h53.7l-13.9,44.2l-58.5,179.6L1607.3,1449.2
		L1607.3,1449.2z M1763.6,1636.6h-101.3c34.3-2,68.4-6.4,102.1-13.1L1763.6,1636.6z M1903.3,1449.2H1768v-390.3h49.3v346l1.4,1.4
		h85.4L1903.3,1449.2L1903.3,1449.2z"/>
	<path class="st1" d="M1018.8,806.3c-2.2-2.6-4.8-3.8-8-4.4l0.8,2.2C1013.9,805.1,1016.5,808.5,1018.8,806.3L1018.8,806.3z
		 M1033.2,813.6c-2-0.2-2.6-3.4-5-2.2C1028.6,813.4,1031.4,815.6,1033.2,813.6z M1041.9,819.4v-0.8c-0.6-0.6-1-1.8-2.2-1.4
		c-0.3,0.9,0.2,1.9,1.1,2.2C1041.1,819.5,1041.5,819.5,1041.9,819.4L1041.9,819.4z M1369.8,866.4l-2.2-2.2v27.5h1.4L1369.8,866.4z
		 M1903.3,895.4c4.2,5-2.2,12.5,3,16.5l1.4-16.5l60.1-0.8c-19.5-2.8-41-0.4-60.9-2.2l-0.6-24.5h-0.8l-1.4,25.3l-90.5,0.6
		C1842.6,896.6,1873.5,894.8,1903.3,895.4L1903.3,895.4z M1314.7,896c-0.2,3.8,0,7.4,2.2,10.3c-0.6-3.4,1-7.3,1.4-10.9l39.2-0.8
		c-12.7-2.8-27.5-0.4-40.6-2.2c-0.2-0.6,0.4-1,0.8-1.4l-2.2-2.8l-1.4,5l-37.6,0.6C1288.4,896.8,1302.5,894.2,1314.7,896z
		 M1096.2,894.6l-2.2-1.4h-41.8l-1.6,1.4C1065.4,895.6,1081.3,895.6,1096.2,894.6z M1203.3,893.2l-2.2,0.6l57.9,0.8
		C1241.3,892,1222.1,893.8,1203.3,893.2L1203.3,893.2z M1486.5,894.6c-36.8-2.6-75.4-0.8-113-1.4l-1.4,1.4
		C1409.7,895.6,1450.9,895.6,1486.5,894.6z M2247.1,894.6l-0.6-0.8l-242.5-0.6l-2.2,0.6l2.2,0.8H2247.1z M2303.7,894.6v-0.8
		c-11.7-1.2-24.1-0.4-36.2-0.6l-0.8,1.4C2278.7,895.6,2291.8,895.6,2303.7,894.6L2303.7,894.6z M792.9,944.5h-1.4v1.6h1.4V944.5z
		 M792.9,964.8h-1.4V980h1.4V964.8z M2121.3,995.9c-1,5-1.6,11.9,0.6,16.7c1.2-4.4,1.8-10.5,1.6-15.3
		C2122.7,996.9,2122.3,995.5,2121.3,995.9z M2339,1056.1l-1.4,1.4c17.1,1.2,34.8,0.6,52.1,0.8v-2.2L2339,1056.1L2339,1056.1
		L2339,1056.1z M2124.1,1405.7c2.4,0.2,5.2-0.6,7.3,0.6l0.8,23.1c14.3-18.1,25.7-37.4,36.2-57.1c46.2-84.3,24.1-198.9-37-269.2h-7.8
		l-0.8-15.9h-1.4l-1.4,15.9c-25.6,0.2-52.5-0.6-76.8,0.6v122.4l77.4,0.6l-0.6,45.1l-76.8,0.6v132.5l77.4,1.4v27.5l1.4,1.4
		c1.4-9.6,0.6-17.9,0.8-28.2L2124.1,1405.7L2124.1,1405.7z M1112.1,1103.1c-7.4,4-16.5,8-20.9,16.7
		C1096.4,1111.8,1105,1107.3,1112.1,1103.1z M110.3,1257.3v2l45.7-0.6v-0.8C138.4,1256.7,125.6,1257.5,110.3,1257.3L110.3,1257.3z
		 M490.3,1257.9c-7.6-1.6-14.1,0.2-21.7-1.4l-1.4,2.2C474.4,1259.5,484.1,1260.4,490.3,1257.9L490.3,1257.9z M181.3,1258.8h9.5v-1.4
		C187.5,1257.7,182.9,1255.9,181.3,1258.8z M2254.4,1452.8c0.6-0.8,1.8-1.2,1.4-2.2c-11.1-1.2-23.1-0.6-34.6-0.8l-1.6,1.4
		C2233.1,1451.8,2240.7,1453.2,2254.4,1452.8L2254.4,1452.8z M791.5,1530.8l-0.8,94.1c2,1.6-0.6,3.4,2.2,3.6c1-32.2,1-65.4,0-97.7
		H791.5L791.5,1530.8z M1989.6,1588.7l0.6,24.7h1.4c1.2-8.9,1.2-17.9,0-26.7L1989.6,1588.7L1989.6,1588.7z M300.7,1637.4
		c-1.6,0.8,0,2,0.6,2.8l0.8-0.8h123.1l-2.2-2L300.7,1637.4L300.7,1637.4L300.7,1637.4z M809.6,1637.4v2l79.6,0.8l2-2.2
		C864.5,1636.8,836.8,1637.6,809.6,1637.4L809.6,1637.4z M2080.7,1637.4l-1.4,1.4c12.3,1.2,24.6,0.6,35.4,0.6v-1.4
		C2103.8,1636.8,2092.1,1637.6,2080.7,1637.4L2080.7,1637.4z M2123.5,1637.4l-1.6,1.4l48.7,0.6l1.4-1.4
		C2156,1636.8,2139.6,1637.6,2123.5,1637.4z M2180.6,1638l2.2,2.2c4-1.6,9.5,0.2,13.7-1.4v-0.8C2191.2,1637,2185.8,1637,2180.6,1638
		L2180.6,1638z M2205.9,1637.4l-1.4,0.6l1.4,1.4c25.7,0.2,50.9,0.4,74.6-0.6C2256.6,1636,2229.8,1637.8,2205.9,1637.4z
		 M2302.8,1637.4l-0.6,0.6l4.2,2.2l36.2-1.4v-0.8C2329.8,1636.8,2316.1,1637.6,2302.8,1637.4z M1767.2,1680.8l-2-2.2l-0.8,27.5
		c0.8,0.4,1,1.8,2.2,1.4C1767.8,1699.1,1767,1689.6,1767.2,1680.8L1767.2,1680.8z"/>
</g>
</svg>
