<?xml version="1.0" encoding="utf-8"?>
<!-- Generator: Adobe Illustrator 25.0.1, SVG Export Plug-In . SVG Version: 6.00 Build 0)  -->
<svg version="1.1" id="Layer_1" xmlns="http://www.w3.org/2000/svg" xmlns:xlink="http://www.w3.org/1999/xlink" x="0px" y="0px"
	 viewBox="0 0 2500 2500" style="enable-background:new 0 0 2500 2500;" xml:space="preserve">
<style type="text/css">
	.st0{fill-rule:evenodd;clip-rule:evenodd;fill:#FFFFFF;}
	.st1{fill-rule:evenodd;clip-rule:evenodd;fill:#C0C0C2;}
</style>
<g>
	<path class="st0" d="M0,0h2500v2500H0V0z"/>
	<path class="st1" d="M889.6,1134.4h36.7v167.1h-36.7V1134.4z M951.3,1134.4h36.5l69.7,112.1h0.5v-112.1h34.4v167.1h-36.7
		l-69.5-111.9h-0.5v111.9h-34.4V1134.4z M1154.3,1165.3h-50.1v-30.9h136.9v30.9h-50.1v136.2h-36.7V1165.3z M1258.5,1134.4h125v30.9
		h-88.2v35.8h81v28.6h-81v41h90.1v30.9h-126.8V1134.4z M1439.5,1163h40.2c16.4,0,25.3,7,25.3,23.2c0,16.8-8.9,23.9-25.3,23.9h-40.2
		v26.2h36.7c18.5,0,25.3,7.7,27.8,25.3c1.9,13.3,1.4,29.5,5.8,40h36.7c-6.5-9.4-6.3-29-7-39.5c-1.2-16.8-6.3-34.4-24.3-39.1v-0.5
		c18.5-7.5,26.4-22.2,26.4-41.9c0-25.3-18.9-46.1-48.9-46.1h-90.1v167.1h36.8L1439.5,1163L1439.5,1163L1439.5,1163z M1589.4,1246
		c0,22.2,17.3,30.9,37,30.9c12.9,0,32.5-3.7,32.5-20.8c0-18-25.1-21.1-49.6-27.6c-24.8-6.5-49.9-16.1-49.9-47.5
		c0-34.2,32.3-50.5,62.5-50.5c34.9,0,66.9,15.2,66.9,53.8h-35.6c-1.2-20.1-15.4-25.3-33-25.3c-11.7,0-25.3,4.9-25.3,18.9
		c0,12.9,8,14.5,49.9,25.3c12.2,3,49.6,10.8,49.6,48.7c0,30.7-24.1,53.6-69.5,53.6c-37,0-71.6-18.3-71.1-59.4L1589.4,1246
		L1589.4,1246L1589.4,1246z M1742.2,1165.3h-50.1v-30.9H1829v30.9H1779v136.2h-36.8L1742.2,1165.3L1742.2,1165.3z M1933.6,1236.9
		l-21.1-61.3h-0.5l-21.8,61.3l-9.6,27.4l-13.1,37.2h-37.2l63.4-167.1h37.7l62.5,167.1h-38.1l-12.6-37.2h-62.5l9.6-27.4H1933.6
		L1933.6,1236.9z M2045.4,1165.3h-50.1v-30.9h136.9v30.9h-50.1v136.2h-36.7V1165.3z M2149.5,1134.4h124.9v30.9h-88.2v35.8h81v28.6
		h-81v41h90.1v30.9h-126.8V1134.4z M960.9,1361.1h78.6c31.8,0,53.4,10.3,53.4,41.4c0,16.4-8.2,27.9-22.7,34.9
		c20.3,5.8,30.6,21.5,30.6,42.4c0,33.9-28.8,48.4-59,48.4h-81l36.7-28.5h39.3c14.5,0,27.1-4.7,27.1-22c0-17.1-10.8-23.9-26.4-23.9
		h-40v-25h37.2c12.9,0,22.5-5.8,22.5-19.9c0-15.9-12.2-19.2-25.3-19.2h-34.4v110l-36.7,28.5L960.9,1361.1L960.9,1361.1L960.9,1361.1
		z M1211,1463.6l-21.1-61.3h-0.5l-21.8,61.3l-9.6,27.4l-13.1,37.2h-37.2l63.4-167.1h37.7l62.5,167.1h-38.1l-12.6-37.2h-62.5
		l9.6-27.4H1211L1211,1463.6z M1329.2,1392h-41.8v-30.9h120.5v30.9h-41.9v136.2h-36.7L1329.2,1392L1329.2,1392z M1557.9,1361.1h125
		v30.9h-88.2v35.8h81v28.5h-81v41h90.1v30.9h-126.8V1361.1L1557.9,1361.1z M1738.1,1389.6h40.3c16.4,0,25.3,7,25.3,23.2
		c0,16.8-8.9,23.9-25.3,23.9h-40.3v26.2h36.7c18.5,0,25.3,7.7,27.8,25.3c1.9,13.3,1.4,29.5,5.8,40h36.8c-6.6-9.4-6.3-29-7-39.5
		c-1.2-16.8-6.3-34.4-24.3-39.1v-0.5c18.5-7.5,26.4-22.2,26.4-41.9c0-25.3-18.9-46.1-48.9-46.1h-90.1v167.1h36.7L1738.1,1389.6
		L1738.1,1389.6L1738.1,1389.6z M1864.8,1361.1h36.7v167.1h-36.7V1361.1z M1930.1,1361.1h125v30.9h-88.2v35.8h81v28.5h-81v41h90.1
		v30.9h-126.8V1361.1L1930.1,1361.1z M2112.3,1472.7c0,22.2,17.3,30.9,37,30.9c12.9,0,32.5-3.7,32.5-20.8c0-18-25-21.1-49.6-27.6
		c-24.8-6.6-49.8-16.1-49.8-47.5c0-34.2,32.3-50.5,62.5-50.5c34.9,0,66.9,15.2,66.9,53.8h-35.6c-1.2-20.1-15.4-25.3-33-25.3
		c-11.7,0-25.3,4.9-25.3,19c0,12.9,8,14.5,49.8,25.3c12.2,3,49.6,10.8,49.6,48.7c0,30.6-24.1,53.6-69.5,53.6
		c-37,0-71.6-18.3-71.1-59.4L2112.3,1472.7L2112.3,1472.7L2112.3,1472.7z M1460.8,1392H1419v-30.9h120.4v30.9h-41.8v136.2h-36.7
		V1392L1460.8,1392z"/>
	<path class="st1" d="M750.1,967.9h-11.9l-2.4,11.6l-75,357.7L288.7,972.1l-4.3-4.2H110.3v29.2h162.2l386.9,379.7l19.1,18.7
		l5.5-26.1l78-372.3h1607.7v-29.2H750.1z"/>
	<path class="st1" d="M799,1048.3l-1.2,5.8l-92.3,443.8l-451.1-447.5l-2.1-2.1H110.3v14.6h135.9l458.5,454.8l9.6,9.5l2.7-13.2
		l93.8-451.2h1558.8v-14.6H799z M2351.3,1139.1c17.7,0,31.4,14.1,31.4,32.5c0,18.7-13.7,32.9-31.4,32.9c-17.9,0-31.6-14.1-31.6-32.9
		c0-18.3,13.2-32.5,31.1-32.5l0.6-5.6c-21,0-38.6,16.5-38.6,38.1c0,22,17.6,38.5,38.6,38.5c21.1,0.1,38.3-16.9,38.4-38
		c0-0.2,0-0.4,0-0.5c0-21.6-17.5-38.1-38.4-38.1V1139.1z"/>
	<path class="st1" d="M2343.4,1154.9h9.2c4.7,0,9.8,0.9,9.8,6.9c0,7.1-5.6,7.4-11.8,7.4h-7.3v5.6h7.4l12.2,19.2h7.5l-12.8-19.8
		c6.7-0.7,11.8-4.1,11.8-12.2c0-8.6-5-12.8-15.7-12.8h-17.3v44.7h7V1154.9L2343.4,1154.9z"/>
</g>
</svg>
