<?xml version="1.0" encoding="utf-8"?>
<!-- Generator: Adobe Illustrator 25.0.1, SVG Export Plug-In . SVG Version: 6.00 Build 0)  -->
<svg version="1.1" id="Layer_1" xmlns="http://www.w3.org/2000/svg" xmlns:xlink="http://www.w3.org/1999/xlink" x="0px" y="0px"
	 viewBox="0 0 2500 2500" style="enable-background:new 0 0 2500 2500;" xml:space="preserve">
<style type="text/css">
	.st0{fill-rule:evenodd;clip-rule:evenodd;fill:#FFFFFF;}
	.st1{fill-rule:evenodd;clip-rule:evenodd;fill:#C0C0C2;}
</style>
<g>
	<path class="st0" d="M0,0h2500v2500H0V0z"/>
	<path class="st1" d="M281.4,1660.8c18.9-7.3,36.1-19.5,47.1-34.4c11-14.9,15.8-32.5,26.3-50.8c10.5-18.3,26.8-37.3,38.6-60.5
		c12.4-24.7,19.2-51.8,19.9-79.5c0.7-28.8-5.1-59.1-13.5-83.7c-8.4-24.6-19.3-43.4-30-57.6c-10.7-14.2-21.3-23.8-33.3-31
		c14.9-8.6,25.9-22.7,30.4-39.3c4.7-17.3,3-38.2-0.5-56.2c-3.5-18-8.8-33.1-16.3-47l-41.6-20.3c18.9-13.8,36.7-29,54.8-45.5
		s36.4-34.2,46.4-61.6c10-27.4,11.6-64.6,0.3-93.6c-11.3-29.1-35.5-50-62.5-57.4c-27-7.4-56.7-1.1-78.7,14.8
		c19.7-1,39.6,5.3,57.4,19.7c17.8,14.4,33.3,37,34.8,57.6c1.5,20.6-11,39.1-25.7,51.1c-14.7,12-31.5,17.5-48.5,11
		c-17-6.5-34.1-24.8-50.9-43.9c-16.7-19.1-33-38.8-44.1-54.9s-17-28.5-20.8-41.6c-7.8,17.6-10.2,37.3-5.6,59.4
		c4.6,22.1,16.1,46.4,28.9,64.3c12.9,17.9,27.1,29.3,39.5,42.5c12.4,13.2,23.1,28.3,23.2,44c0.1,15.7-10.2,31.9-24.9,38.2
		c-14.6,6.4-33.5,2.9-42.5-8c-9-10.9-8.2-29.1-11.9-48.1c-3.8-19-12.2-38.9-26.9-55.7c-14.7-16.9-35.8-30.8-56.7-35.4
		c-19.9-4.5-40.9-0.4-57.6,11.3c25.8,0.2,52.2,10.2,68.8,26.8c16.7,16.6,23.5,39.8,25.6,58.4c2,18.6-0.8,32.5-7,42.2
		c-6.2,9.6-15.7,15-25.3,15.7c-9.5,0.7-19-3.2-26.7-12.5s-13.6-23.9-15.2-38.4c-11.1,14-14.9,34.3-7.6,51.8
		c7.3,17.5,25.6,32.4,44.5,39.4c18.9,7,38.4,6.1,53,5.1c14.6-1.1,24.1-2.4,32.6-0.8c8.5,1.6,15.8,6.2,17.7,12.3s-1.5,13.7-6,18.1
		c-4.1,4.2-10.4,5.5-15.9,3.5c-5.7-2-11.4-7-14.8-13c-1.7,9.3,0.1,19.9,4.6,26.1c4.5,6.2,11.6,7.9,18.2,9.9c6.6,1.9,12.7,4,16.5,8.2
		c3.8,4.2,5.2,10.3,4.2,16c-11.2-2.2-23.2-1.1-32.6,3.2c-9.4,4.3-16.3,11.9-24.5,18.2c-8.2,6.3-17.8,11.3-22.3,18.7
		c-4.6,7.3-4.1,17-7.2,26.3c-3.1,9.3-9.7,18.2-18.2,27.9c-8.5,9.7-18.8,20.1-25.2,31c-6.4,10.9-9,22.3-12.1,32.8
		c-3.1,10.6-6.8,20.3-2.3,29.8c4.5,9.5,17.3,18.5,29.3,23.6c12,5.1,23.3,6.1,33.9,3.8c10,3.6,20,7.2,28.4,5.9
		c8.4-1.3,15.2-7.5,21.9-13.7c13,2.9,26,5.8,38.9,4.8c12.9-1,25.7-5.8,38.5-10.6v-50.4c-12.9,3.1-25.7,6.1-38.6,6.8
		c-12.9,0.7-25.8-1.1-38.8-2.9c-11,8.4-22.6,15.8-34.8,22.3l-23.2-15.5c9-12.9,18-25.8,27.6-37.3c9.7-11.5,20-21.5,30.4-31.5
		c-1.6-7.2-0.5-14.8,4-22.5c9.1-14.7,29-30.5,44.2-37c7.6-3.1,14.6-3.7,21.4-2.6l12.6-25.2c-4.7-6.4-6.4-14.6-4-25.7
		c2.5-11.1,9.2-25.2,20.4-35.4c11.2-10.2,26.8-16.4,42.6-17.5c0.7,13.2,0.1,26.6-1.4,36.2c-1.4,9.6-3.7,15.3-9.4,22.3
		c-5.7,7-15,15.3-25,21.9l-1,33.9c17.1,12.4,32.2,27.5,45.6,45.5s25.3,38.9,30.1,62.4c4.9,23.5,2.7,49.6-3.7,71.8
		c-6.5,22.2-17.3,40.4-29.1,55.6c-11.8,15.2-24.6,27.3-39,37.1L281.4,1660.8L281.4,1660.8L281.4,1660.8z M672.1,1414.5l21.3-24.2
		v-80.5l-48.4-49.4H449.7v50.4h29v220.1h-29v50.4h195.4l51.3-51.4v-91.1L672.1,1414.5z M647,1509.5l-26.1,21.3h-86.1v-92.1h86.1
		l26.1,19.4V1509.5z M647,1372.8l-26.1,21.3h-86.1v-82.4h89.9l22.2,19.4V1372.8L647,1372.8z M933.3,1412.6l-36.7,30.9l25.1,38.9
		h28.1v48.5h-54.2l-49.2-75.6h-39.7v33h25.1v42.7h-93.8v-42.7h15.5v-134.8h-15.5v-42.6h154.6l40.8,36.8L933.3,1412.6L933.3,1412.6z
		 M867.5,1353.4h-60.9v59.1h60.9l16.4-12.6v-33.9L867.5,1353.4z M1118.9,1310.8h-110.2l-38.7,38.8v142.5l38.7,38.8h110.2l38.7-38.8
		v-142.5L1118.9,1310.8z M1105.4,1475.2l-15.9,15.9h-51.3l-16-15.9v-108.8l16-15.9h51.3l16,15.9L1105.4,1475.2L1105.4,1475.2z
		 M1446.2,1486.3h33.4v44.6h-111.2v-44.6h23.3l-44.6-110.7l-44.6,110.7h29.2v44.6h-111.2v-44.6h27.6l-48.2-130.9h-27.8v-44.6h105.4
		v44.6h-23.4l24.9,67.8l42-112.4h54.2l40.1,112.4l25-67.8h-21.5v-44.6h106.4v44.6h-30.7L1446.2,1486.3L1446.2,1486.3z
		 M1754.3,1530.8H1705l-86.1-124.1l-0.2,79.5h24.3v44.6h-97.7v-44.6h23.8l0.4-130.9h-24.2v-44.6h72.6l87,130.9l-1-86.3h-26.1v-44.6
		h96.7v44.6h-20.3L1754.3,1530.8L1754.3,1530.8z M1871.3,1486.3h24.2v44.6h-97.7v-44.6h23.8l0.4-130.9h-24.2v-44.6h97.7v43.6
		l-24.2,1V1486.3L1871.3,1486.3z M2131.5,1530.8h-49.3l-86.1-124.1l-0.1,79.5h24.3v44.6h-97.7v-44.6h23.8l0.4-130.9h-24.2v-44.6
		h72.5l87,130.9v-86.3h-27.1v-44.6h96.7v44.6h-20.3L2131.5,1530.8L2131.5,1530.8z M2404.2,1309.8v49.4l-49.3,0.1v-28.1l-20.3-19.4
		h-77.4l-20.3,19.4v178.4l19.4,21.3h79.3l19.4-21.3v-68.8h-34.8v-52.3h126.7v52.3h-42.6v93.1l-48.4,47.5h-119.9l-48.4-47.5v-224
		l48.4-49.4h119.9L2404.2,1309.8L2404.2,1309.8z M2458.5,1581.5c-3.1-5.4-7.6-9.8-12.9-13c-5.4-3.1-11.5-4.7-17.7-4.7
		c-12.6,0-24.3,6.8-30.6,17.7c-3.1,5.3-4.7,11.5-4.7,17.7c0,6.2,1.7,12.3,4.7,17.7c9.8,16.9,31.3,22.7,48.2,13
		c5.3-3.1,9.8-7.6,12.9-13c3.1-5.3,4.7-11.5,4.7-17.7C2463.2,1593,2461.6,1586.9,2458.5,1581.5L2458.5,1581.5z M2454.3,1614.6
		c-2.6,4.5-6.5,8.4-11,11s-9.8,4-15,4c-16.6,0-30-13.5-30-30.1c0-5.2,1.4-10.4,4-15c2.6-4.5,6.5-8.4,11-11s9.8-4,15-4
		c16.6,0,30,13.4,30,30C2458.3,1604.8,2456.9,1610,2454.3,1614.6z"/>
	<path class="st1" d="M2443.7,1617.7c-0.7-2.3-0.6-6.3-0.9-9.5c-0.1-1.1,0.1-2.2-0.4-3.5c-0.5-1.3-1.1-2.5-2-3.5
		c-0.6-0.8-1.5-1.3-2.5-1.4c1.8-0.6,3.3-1.9,4.2-3.5c1.2-1.9,1.7-4.2,1.7-6.4c0-2.5-0.7-4.9-2-7c-2.8-4.1-7.7-4.8-12-4.6h-18.1v41.9
		h7v-17.2c4.3,0.1,9.1-0.2,12.8,0.2c1,0.2,1.9,0.6,2.7,1.2c2.5,3,1.4,6.9,1.9,10.3c0.1,2,0.3,3.9,1.1,5.6h7.9
		C2445.3,1618.7,2444.1,1618.9,2443.7,1617.7z M2434.5,1595.7c-0.9,0.6-2,1-3.1,1.2c-3.9,0.4-8.6,0.1-12.8,0.2v-12.8h10.1
		c2.7,0,5.7-0.1,7.5,3.5C2437.1,1590.6,2437.1,1593.6,2434.5,1595.7z"/>
</g>
</svg>
