<?xml version="1.0" encoding="utf-8"?>
<!-- Generator: Adobe Illustrator 25.0.1, SVG Export Plug-In . SVG Version: 6.00 Build 0)  -->
<svg version="1.1" id="Capa_1" xmlns="http://www.w3.org/2000/svg" xmlns:xlink="http://www.w3.org/1999/xlink" x="0px" y="0px"
	 viewBox="0 0 512 512" style="enable-background:new 0 0 512 512;" xml:space="preserve">
<style type="text/css">
	.st0{fill:#02A5EF;}
	.st1{fill:#FFFFFF;}
</style>
<g>
	<g>
		<circle class="st0" cx="256" cy="256" r="256"/>
		<g>
			<path class="st1" d="M412.8,184c-11,4.9-22.8,8.2-35.1,9.6c12.6-7.6,22.3-19.5,26.9-33.8c-11.8,7-24.9,12.1-38.9,14.8
				c-11.2-11.9-27.1-19.3-44.7-19.3c-33.8,0-61.2,27.4-61.2,61.2c0,4.8,0.5,9.5,1.6,13.9c-50.9-2.6-95.9-26.9-126.1-63.9
				c-5.3,9-8.3,19.6-8.3,30.8c0,21.2,10.8,40,27.2,50.9c-10-0.3-19.5-3.1-27.7-7.7c0,0.3,0,0.5,0,0.8c0,29.6,21.1,54.4,49.1,60
				c-5.1,1.4-10.5,2.1-16.1,2.1c-4,0-7.8-0.4-11.5-1.1c7.8,24.3,30.4,42,57.2,42.5c-20.9,16.4-47.3,26.2-76,26.2
				c-4.9,0-9.8-0.3-14.6-0.9c27.1,17.4,59.2,27.5,93.8,27.5c112.6,0,174.1-93.2,174.1-174.1c0-2.7-0.1-5.3-0.2-7.9
				C394.2,207,404.6,196.2,412.8,184L412.8,184z"/>
		</g>
	</g>
</g>
</svg>
