<svg xmlns="http://www.w3.org/2000/svg" xmlns:xlink="http://www.w3.org/1999/xlink" viewBox="0 0 565.22 297"><defs><style>.cls-1{fill:none;stroke:#000;stroke-width:3px;}.cls-2{font-size:178px;font-family:Fontjek;}.cls-3{clip-path:url(#clip-path);}.cls-4{fill:#e08f1d;}</style><clipPath id="clip-path"><path class="cls-1" d="M264.48,206.49q1-3.19,1.68-6.44a27.2,27.2,0,0,0,.69-5.54q0-3.62-1.77-5.32a8.45,8.45,0,0,0-5.33-2v-4.59h29v4.59a10.15,10.15,0,0,0-4.32,2,13.32,13.32,0,0,0-3.14,4,66.27,66.27,0,0,0-3.48,8.64l-26.11,76.31H235.17l-15.74-65.38-18.66,65.38H183.36l-21-78a42.72,42.72,0,0,0-2.72-7.94,8.88,8.88,0,0,0-6.34-5v-4.59h37.47v4.59a9.44,9.44,0,0,0-5.37,2,5.86,5.86,0,0,0-1.74,4.53q0,3.69,2,11.49l12.05,48.39,20-71H233.5l16.29,71Zm64,62-1.05-.35a41.06,41.06,0,0,1-11.11,8.08,26.83,26.83,0,0,1-11.45,2.51,23.21,23.21,0,0,1-10.41-2.19,15.38,15.38,0,0,1-6.68-6.1,17.55,17.55,0,0,1-2.27-9q0-10.23,10.06-16.12T326.11,238v-6.61q0-6.48-1.46-10a9.07,9.07,0,0,0-9.27-6.37,12.75,12.75,0,0,0-5.53,1.11,10.39,10.39,0,0,0-4.21,4.21,24.29,24.29,0,0,0-2.79,8.6H289.69V216.24q6.4-2.85,10.65-4.39a84,84,0,0,1,8.39-2.54,69.91,69.91,0,0,1,7.42-1.43,53.21,53.21,0,0,1,6.55-.41q8.42,0,13.47,2.22a15,15,0,0,1,7.55,7.25q2.52,5,2.51,13.85V258q0,4.59.21,7.1a15.31,15.31,0,0,0,.66,3.73,5.72,5.72,0,0,0,1.15,2,5.32,5.32,0,0,0,1.71,1.18,27.19,27.19,0,0,0,3.79,1.15v4.59h-25.9Zm-2.3-23.74q-10.8.27-16,4t-5.19,11q0,4.32,2.37,6.58a9.06,9.06,0,0,0,6.54,2.26A11.67,11.67,0,0,0,320,267a12.85,12.85,0,0,0,4.53-4.56,11.88,11.88,0,0,0,1.67-6.06Zm85.09,24.51a44.89,44.89,0,0,1-11.14,7.34,26.82,26.82,0,0,1-10.59,2.13q-10.38,0-15.49-5.61t-5.12-17V217.28h-8.7v-4.8a15.67,15.67,0,0,0,6.26-2.09,9.36,9.36,0,0,0,3.14-3.72,24.2,24.2,0,0,0,1.77-6.1,86,86,0,0,0,1-9.4h16.64v17.41H408.9v8.7H389.05v31.41a66.42,66.42,0,0,0,.74,11.63,10.63,10.63,0,0,0,2.47,5.53,5.79,5.79,0,0,0,4.32,1.78,15.94,15.94,0,0,0,3.48-.35,13.12,13.12,0,0,0,3.23-1.25,19,19,0,0,0,3.59-2.58ZM476.79,265q-7.11,7.53-14.07,10.65a38.63,38.63,0,0,1-16,3.14q-16.23,0-24.41-8.88t-8.18-26.35q0-11.29,4.21-19.47a28.68,28.68,0,0,1,11.95-12.39,36.92,36.92,0,0,1,18-4.21,37.87,37.87,0,0,1,11.11,1.46,25.69,25.69,0,0,1,8.18,4.07,22.65,22.65,0,0,1,5.64,6.3,35,35,0,0,1,4,10,63,63,0,0,1,1.46,14H434.45q.07,12.6,4.5,18.55t13.47,6a22.31,22.31,0,0,0,9.54-2,33.34,33.34,0,0,0,9.19-7ZM458,235.81q-.28-10.67-2.79-15.88a8.39,8.39,0,0,0-8.07-5.22q-5.37,0-8.53,5.43t-3.8,15.67Zm57.44-17.27.91.21a33.58,33.58,0,0,1,10.44-8.64,26,26,0,0,1,11.63-2.64,47.25,47.25,0,0,1,8.92.9v19.22H534.72a16.1,16.1,0,0,0-3.1-6.2,6.48,6.48,0,0,0-5.11-2.16,7.6,7.6,0,0,0-3.38.94,12.06,12.06,0,0,0-3.41,2.65,10.71,10.71,0,0,0-2.23,3.48,15.41,15.41,0,0,0-.87,3.59,51.31,51.31,0,0,0-.21,5.43v22.21a58.38,58.38,0,0,0,.49,9.26,7.65,7.65,0,0,0,2,4.14,9.07,9.07,0,0,0,4.94,2.13v4.59H489.46v-4.59a9.34,9.34,0,0,0,4.63-2.37,8,8,0,0,0,1.74-4,60.43,60.43,0,0,0,.46-9.12V229q0-5.14-.18-7.62a12,12,0,0,0-.83-4,5.85,5.85,0,0,0-2-2.44,13.79,13.79,0,0,0-4.7-1.63v-4.74l19.08-.56h8.77Z"/></clipPath></defs><g id="Layer_2" data-name="Layer 2"><g id="design4"><text class="cls-2" transform="translate(0 164.84)">Apah</text><g class="cls-3"><polygon points="363.34 196.5 407.82 200.27 394.34 169.5 363.34 196.5"/><path d="M371,278.77c.82.23,30.82-26.77,30.82-26.77l18.05,25.65L374.84,290Z"/><path d="M319.63,230.38s16.79,14.62,0,21.62-14.87,45-25.83,38S267,252.12,279.92,242.56,319.63,230.38,319.63,230.38Z"/><path d="M281.84,210c2-1,33.75-12.77,33.75-12.77s8.76,21.28,0,28-33.75,10.55-33.75,10.55Z"/><path d="M488.56,283.4s33.3-18.4,34.29-31.4S526,290.86,526,290.86Z"/><path d="M514.23,216s38-34.73,49.53-6.46-48.6,38.41-49,35.37S514.23,216,514.23,216Z"/><path d="M480,245.42s.4-32.14-7.19-38.42c-7.36-6.09-36.32-3.43-44,0-15.61,7-17.41,38.14-15.93,39.47S480,245.42,480,245.42Z"/><path d="M138.84,177c0,1,49,120,49,120s17-8,17-9-11-119-11-119Z"/><polygon points="176.84 289 196.84 295 234.84 168 207.44 171 176.84 289"/></g><path class="cls-1" d="M264.48,206.49q1-3.19,1.68-6.44a27.2,27.2,0,0,0,.69-5.54q0-3.62-1.77-5.32a8.45,8.45,0,0,0-5.33-2v-4.59h29v4.59a10.15,10.15,0,0,0-4.32,2,13.32,13.32,0,0,0-3.14,4,66.27,66.27,0,0,0-3.48,8.64l-26.11,76.31H235.17l-15.74-65.38-18.66,65.38H183.36l-21-78a42.72,42.72,0,0,0-2.72-7.94,8.88,8.88,0,0,0-6.34-5v-4.59h37.47v4.59a9.44,9.44,0,0,0-5.37,2,5.86,5.86,0,0,0-1.74,4.53q0,3.69,2,11.49l12.05,48.39,20-71H233.5l16.29,71Zm64,62-1.05-.35a41.06,41.06,0,0,1-11.11,8.08,26.83,26.83,0,0,1-11.45,2.51,23.21,23.21,0,0,1-10.41-2.19,15.38,15.38,0,0,1-6.68-6.1,17.55,17.55,0,0,1-2.27-9q0-10.23,10.06-16.12T326.11,238v-6.61q0-6.48-1.46-10a9.07,9.07,0,0,0-9.27-6.37,12.75,12.75,0,0,0-5.53,1.11,10.39,10.39,0,0,0-4.21,4.21,24.29,24.29,0,0,0-2.79,8.6H289.69V216.24q6.4-2.85,10.65-4.39a84,84,0,0,1,8.39-2.54,69.91,69.91,0,0,1,7.42-1.43,53.21,53.21,0,0,1,6.55-.41q8.42,0,13.47,2.22a15,15,0,0,1,7.55,7.25q2.52,5,2.51,13.85V258q0,4.59.21,7.1a15.31,15.31,0,0,0,.66,3.73,5.72,5.72,0,0,0,1.15,2,5.32,5.32,0,0,0,1.71,1.18,27.19,27.19,0,0,0,3.79,1.15v4.59h-25.9Zm-2.3-23.74q-10.8.27-16,4t-5.19,11q0,4.32,2.37,6.58a9.06,9.06,0,0,0,6.54,2.26A11.67,11.67,0,0,0,320,267a12.85,12.85,0,0,0,4.53-4.56,11.88,11.88,0,0,0,1.67-6.06Zm85.09,24.51a44.89,44.89,0,0,1-11.14,7.34,26.82,26.82,0,0,1-10.59,2.13q-10.38,0-15.49-5.61t-5.12-17V217.28h-8.7v-4.8a15.67,15.67,0,0,0,6.26-2.09,9.36,9.36,0,0,0,3.14-3.72,24.2,24.2,0,0,0,1.77-6.1,86,86,0,0,0,1-9.4h16.64v17.41H408.9v8.7H389.05v31.41a66.42,66.42,0,0,0,.74,11.63,10.63,10.63,0,0,0,2.47,5.53,5.79,5.79,0,0,0,4.32,1.78,15.94,15.94,0,0,0,3.48-.35,13.12,13.12,0,0,0,3.23-1.25,19,19,0,0,0,3.59-2.58ZM476.79,265q-7.11,7.53-14.07,10.65a38.63,38.63,0,0,1-16,3.14q-16.23,0-24.41-8.88t-8.18-26.35q0-11.29,4.21-19.47a28.68,28.68,0,0,1,11.95-12.39,36.92,36.92,0,0,1,18-4.21,37.87,37.87,0,0,1,11.11,1.46,25.69,25.69,0,0,1,8.18,4.07,22.65,22.65,0,0,1,5.64,6.3,35,35,0,0,1,4,10,63,63,0,0,1,1.46,14H434.45q.07,12.6,4.5,18.55t13.47,6a22.31,22.31,0,0,0,9.54-2,33.34,33.34,0,0,0,9.19-7ZM458,235.81q-.28-10.67-2.79-15.88a8.39,8.39,0,0,0-8.07-5.22q-5.37,0-8.53,5.43t-3.8,15.67Zm57.44-17.27.91.21a33.58,33.58,0,0,1,10.44-8.64,26,26,0,0,1,11.63-2.64,47.25,47.25,0,0,1,8.92.9v19.22H534.72a16.1,16.1,0,0,0-3.1-6.2,6.48,6.48,0,0,0-5.11-2.16,7.6,7.6,0,0,0-3.38.94,12.06,12.06,0,0,0-3.41,2.65,10.71,10.71,0,0,0-2.23,3.48,15.41,15.41,0,0,0-.87,3.59,51.31,51.31,0,0,0-.21,5.43v22.21a58.38,58.38,0,0,0,.49,9.26,7.65,7.65,0,0,0,2,4.14,9.07,9.07,0,0,0,4.94,2.13v4.59H489.46v-4.59a9.34,9.34,0,0,0,4.63-2.37,8,8,0,0,0,1.74-4,60.43,60.43,0,0,0,.46-9.12V229q0-5.14-.18-7.62a12,12,0,0,0-.83-4,5.85,5.85,0,0,0-2-2.44,13.79,13.79,0,0,0-4.7-1.63v-4.74l19.08-.56h8.77Z"/><circle class="cls-4" cx="117.34" cy="8.5" r="8.5"/></g></g></svg>